<?xml version="1.0" encoding="UTF-8"?> <svg xmlns="http://www.w3.org/2000/svg" id="uuid-55888fde-4245-454d-8fbb-ea8b96184001" viewBox="0 0 286.11 59.92"><g id="uuid-314da3c6-618f-4c4a-b216-4cd31e98e64e"><path d="m20.69,36.34h38.76c.46-2.1.71-4.27.71-6.5,0-12.94-8.17-23.96-19.62-28.21l-19.85,34.71Z" fill="#ed1c24"></path><path d="m7.34,49.52c5.52,6.37,13.66,10.4,22.74,10.4s17.23-4.03,22.74-10.4H7.34Z" fill="#ed1c24"></path><path d="m26.28,0C11.46,1.87,0,14.51,0,29.84c0,4.21.87,8.22,2.43,11.87L26.28,0Z" fill="#ed1c24"></path><path d="m86.92,17.04h8.47l-4.85,18.09h11.54l-1.95,7.24h-20.01l6.8-25.32Z" fill="#221448"></path><path d="m102.98,33.76c0-1.3.18-2.71.54-4.09l3.4-12.63h8.61l-3.55,13.17c-.18.72-.29,1.41-.29,1.99,0,2.1,1.23,3.18,3.47,3.18,1.05,0,2.03-.36,2.71-1.05.76-.76,1.27-1.74,1.81-3.69l3.65-13.6h8.61l-4.02,14.91c-.9,3.36-2.21,5.82-3.98,7.6-2.39,2.39-6.01,3.33-10.02,3.33-7.13,0-10.96-3.4-10.96-9.12Z" fill="#221448"></path><path d="m137.86,29.06l-5.1-12.01h9.15l2.35,6.15,5.46-6.15h9.8l-11.58,12.37,5.54,12.95h-9.15l-2.71-7.16-6.4,7.16h-9.8l12.45-13.31Z" fill="#221448"></path><path d="m160.72,17.04h8.36l3.04,8.9,7.81-8.9h9.3l-6.8,25.32h-8.43l3.36-12.55-8.25,9.01h-.14l-3.4-9.01-3.36,12.55h-8.28l6.8-25.32Z" fill="#221448"></path><path d="m191.97,17.04h21.6l-1.88,6.95h-13.28l-.69,2.57h12.37l-1.63,6.11h-12.37l-.76,2.75h13.46l-1.85,6.95h-21.78l6.8-25.32Z" fill="#221448"></path><path d="m220.88,24.21h-7.45l1.92-7.16h23.37l-1.92,7.16h-7.45l-4.88,18.16h-8.47l4.88-18.16Z" fill="#221448"></path><path d="m240.56,17.04h21.6l-1.88,6.95h-13.28l-.69,2.57h12.37l-1.63,6.11h-12.37l-.76,2.75h13.46l-1.84,6.95h-21.78l6.8-25.32Z" fill="#221448"></path><path d="m264.9,17.04h9.88c4.67,0,7.63,1.01,9.33,2.71,1.41,1.41,1.99,3.29,1.99,5.28,0,3.94-2.06,7.34-7.05,8.9l3.51,8.43h-9.12l-2.82-7.24h-2.1l-1.95,7.24h-8.47l6.8-25.32Zm8.28,12.05c2.82,0,4.31-1.3,4.31-2.89,0-.51-.18-.98-.54-1.34-.47-.47-1.3-.72-2.5-.72h-3l-1.34,4.96h3.08Z" fill="#221448"></path></g></svg> 