<?xml version="1.0" encoding="utf-8"?>
<!-- Generator: Adobe Illustrator 27.1.1, SVG Export Plug-In . SVG Version: 6.00 Build 0)  -->
<svg version="1.1" id="Capa_1" xmlns="http://www.w3.org/2000/svg" xmlns:xlink="http://www.w3.org/1999/xlink" x="0px" y="0px"
	 viewBox="0 0 172.57 70.43" style="enable-background:new 0 0 172.57 70.43;" xml:space="preserve">
<style type="text/css">
	.st0{fill:#6DAA3F;}
	.st1{fill:#134C80;}
</style>
<g>
	<g>
		<polygon class="st0" points="17.65,9.83 16.37,15.76 100.06,15.76 101.34,9.83 		"/>
		<polygon class="st0" points="152.38,55.85 150.09,55.85 131.1,55.85 129.36,55.85 128.8,55.85 127.07,55.85 122.34,55.85 
			121.06,61.79 125.11,61.79 127.53,61.79 128.08,61.79 129.82,61.79 148.8,61.79 151.1,61.79 157.19,61.79 158.47,55.85 		"/>
		<path class="st1" d="M30.62,30.58c-0.47,2.2-1.89,3.36-5.08,3.36h-0.6l1.38-6.5h1.29C30.28,27.44,31.09,28.39,30.62,30.58
			 M33.55,20.38H15.48L8.89,51.45H21.2l2.23-10.46h4.05c8.69,0,13.6-4.22,14.93-10.41C43.66,24.73,41.04,20.38,33.55,20.38"/>
		<path class="st1" d="M46.68,20.38h10.41l-2.63,12.39h0.09c2.02-2.33,4.04-3.58,7.57-3.58c4.35,0,7.02,2.16,5.81,7.88l-3.06,14.37
			H54.46l2.84-13.38c0.35-1.59-0.13-2.5-1.38-2.5c-1.16,0-2.19,0.69-2.54,2.41l-2.88,13.47H40.09L46.68,20.38z"/>
		<polygon class="st1" points="74.56,20.38 84.97,20.38 83.59,27.01 73.18,27.01 		"/>
		<polygon class="st1" points="72.58,29.85 82.99,29.85 78.39,51.45 67.97,51.45 		"/>
		<path class="st1" d="M88.37,20.39h10.41l-2.41,11.45c2.11-1.94,4.56-2.63,6.97-2.63c4.69,0,8.22,3.01,6.5,11.19
			c-1.64,7.66-6.24,11.7-11.49,11.7c-2.36,0-4.78-0.69-6.07-3.14l-0.69,2.5h-9.81L88.37,20.39z M94.05,44.83
			c0.17,0.64,0.51,1.16,1.68,1.16c2.23,0,3.01-2.41,3.61-5.33c0.73-3.44,0.86-5.34-1.29-5.34c-1.16,0-2.15,0.73-2.67,1.98
			c-0.39,0.9-0.48,1.46-0.91,3.36C94.01,42.89,93.88,44.18,94.05,44.83"/>
		<path class="st1" d="M113.89,29.85h10.15l-0.25,2.37c1.94-1.94,3.48-2.63,4.82-2.63c0.86,0,1.76,0.09,2.62,0.61l-1.68,7.83
			c-1.12-0.3-2.36-0.6-4.22-0.6c-1.98,0-2.92,1.33-3.22,2.71l-2.41,11.31h-10.41L113.89,29.85z"/>
		<path class="st1" d="M146.77,40.65c-0.91,4.3-1.94,5.59-3.61,5.59s-2.19-1.29-1.29-5.59c0.95-4.3,1.98-5.59,3.66-5.59
			S147.71,36.35,146.77,40.65 M146.77,29.21c-8.78,0-14.2,4.61-15.66,11.45c-1.42,6.84,2.02,11.44,10.8,11.44s14.2-4.6,15.62-11.44
			C158.99,33.81,155.55,29.21,146.77,29.21"/>
		<polygon class="st1" points="13.42,57.74 12.57,61.54 11.37,61.54 12.63,56.01 14.12,56.01 15.12,60.02 16.04,56.01 17.23,56.01 
			15.97,61.54 14.46,61.54 		"/>
		<polygon class="st1" points="18.35,56.01 19.57,56.01 18.31,61.54 17.08,61.54 		"/>
		<polygon class="st1" points="24.47,58.51 22.97,60.81 21.72,60.81 21.38,58.51 20.5,61.54 19.29,61.54 20.89,56.01 22.12,56.01 
			22.63,59.58 24.83,56.01 26.05,56.01 25.12,61.54 23.92,61.54 		"/>
		<path class="st1" d="M29.45,60.45h-1.89l-0.56,1.09h-1.32l2.95-5.53h1.67l0.5,5.53h-1.3L29.45,60.45z M28.07,59.44h1.32
			l-0.11-2.41L28.07,59.44z"/>
		<polygon class="st1" points="32.66,56.01 33.88,56.01 32.85,60.46 35.07,60.46 34.83,61.54 31.4,61.54 		"/>
		<polygon class="st1" points="40.71,59.29 38.94,59.29 38.43,61.53 37.21,61.53 38.47,56.01 39.7,56.01 39.19,58.22 40.96,58.22 
			41.46,56.01 42.69,56.01 41.43,61.53 40.2,61.53 		"/>
		<polygon class="st1" points="43.76,56.01 47.24,56.01 46.99,57.09 44.74,57.09 44.5,58.14 46.58,58.14 46.34,59.21 44.25,59.21 
			43.96,60.46 46.22,60.46 45.98,61.54 42.5,61.54 		"/>
		<path class="st1" d="M50.35,60.45h-1.89l-0.56,1.09h-1.32l2.95-5.53h1.67l0.5,5.53h-1.3L50.35,60.45z M48.96,59.44h1.32
			l-0.11-2.41L48.96,59.44z"/>
		<polygon class="st1" points="53.55,56.01 54.77,56.01 53.75,60.46 55.97,60.46 55.73,61.54 52.29,61.54 		"/>
		<polygon class="st1" points="57.93,61.54 56.7,61.54 57.72,57.09 56.22,57.09 56.47,56.01 60.69,56.01 60.44,57.09 58.95,57.09 		
			"/>
		<polygon class="st1" points="63.55,59.29 61.79,59.29 61.28,61.53 60.06,61.53 61.32,56.01 62.54,56.01 62.03,58.22 63.8,58.22 
			64.31,56.01 65.53,56.01 64.27,61.53 63.05,61.53 		"/>
		<path class="st1" d="M67.3,60.27c0-0.09,0.02-0.2,0.05-0.33l0.55-2.39c0.26-1.13,0.98-1.62,2.32-1.62c0.56,0,1.05,0.09,1.58,0.24
			l-0.33,1.04c-0.46-0.1-1.04-0.18-1.43-0.18c-0.59,0-0.84,0.19-0.97,0.78l-0.44,1.93c-0.02,0.09-0.03,0.2-0.04,0.26
			c-0.02,0.38,0.19,0.52,0.65,0.52c0.4,0,0.94-0.05,1.45-0.16l-0.01,1.04c-0.45,0.13-1.07,0.22-1.68,0.22
			C67.76,61.62,67.25,61.04,67.3,60.27"/>
		<path class="st1" d="M71.62,60.15c0.01-0.08,0.02-0.17,0.04-0.25l0.52-2.28c0.23-1.03,0.9-1.69,2.46-1.69
			c1.31,0,1.89,0.75,1.85,1.5c0,0.07-0.01,0.17-0.04,0.25l-0.52,2.26c-0.24,1.05-0.89,1.69-2.53,1.69
			C72.1,61.62,71.58,60.9,71.62,60.15 M75.24,57.55c0.02-0.34-0.19-0.55-0.79-0.55c-0.63,0-0.98,0.28-1.08,0.72l-0.48,2.11
			c-0.01,0.07-0.02,0.13-0.02,0.19c-0.02,0.34,0.19,0.52,0.79,0.52c0.63,0,0.98-0.24,1.08-0.71l0.48-2.11
			C75.23,57.66,75.24,57.6,75.24,57.55"/>
		<path class="st1" d="M78.97,59.81h-0.84l-0.39,1.73h-1.22l1.26-5.53h2.12c1.19,0,1.75,0.45,1.7,1.26c0,0.11-0.02,0.22-0.05,0.34
			l-0.15,0.67c-0.16,0.69-0.42,1.13-1.13,1.37l0.95,1.89h-1.37L78.97,59.81z M80.31,57.72c0.02-0.09,0.04-0.19,0.04-0.23
			c0.01-0.28-0.16-0.4-0.58-0.4h-1.01l-0.38,1.67h1.05c0.54,0,0.69-0.2,0.79-0.62L80.31,57.72z"/>
		<path class="st1" d="M83.49,59.85l-0.39,1.69h-1.22l1.26-5.53h2.11c1.19,0,1.73,0.46,1.7,1.25c-0.01,0.11-0.04,0.29-0.07,0.42
			l-0.14,0.62c-0.24,1.03-0.69,1.55-2.15,1.55H83.49z M85.63,57.74c0.02-0.1,0.04-0.18,0.04-0.24c0.01-0.28-0.15-0.41-0.52-0.41
			h-1.03l-0.39,1.71h1c0.57,0,0.7-0.2,0.8-0.61L85.63,57.74z"/>
		<path class="st1" d="M87.01,60.15c0.01-0.08,0.02-0.17,0.04-0.25l0.52-2.28c0.23-1.03,0.9-1.69,2.46-1.69
			c1.31,0,1.89,0.75,1.85,1.5c-0.01,0.07-0.02,0.17-0.04,0.25l-0.52,2.26c-0.24,1.05-0.9,1.69-2.53,1.69
			C87.49,61.62,86.97,60.9,87.01,60.15 M90.63,57.55c0.02-0.34-0.19-0.55-0.79-0.55c-0.63,0-0.98,0.28-1.08,0.72l-0.48,2.11
			c-0.01,0.07-0.02,0.13-0.03,0.19c-0.02,0.34,0.19,0.52,0.79,0.52c0.63,0,0.98-0.24,1.08-0.71l0.48-2.11
			C90.62,57.66,90.63,57.6,90.63,57.55"/>
		<path class="st1" d="M94.36,59.81h-0.84l-0.39,1.73h-1.22l1.26-5.53h2.12c1.19,0,1.75,0.45,1.71,1.26
			c-0.01,0.11-0.03,0.22-0.05,0.34l-0.15,0.67c-0.15,0.69-0.42,1.13-1.13,1.37l0.95,1.89h-1.37L94.36,59.81z M95.7,57.72
			c0.02-0.09,0.04-0.19,0.04-0.23c0.01-0.28-0.15-0.4-0.58-0.4h-1.01l-0.38,1.67h1.04c0.54,0,0.69-0.2,0.79-0.62L95.7,57.72z"/>
		<path class="st1" d="M100.74,60.45h-1.89l-0.56,1.09h-1.32l2.95-5.53h1.67l0.5,5.53h-1.3L100.74,60.45z M99.36,59.44h1.32
			l-0.11-2.41L99.36,59.44z"/>
		<polygon class="st1" points="104.53,61.54 103.29,61.54 104.31,57.09 102.82,57.09 103.06,56.01 107.28,56.01 107.03,57.09 
			105.54,57.09 		"/>
		<polygon class="st1" points="107.95,56.01 109.17,56.01 107.91,61.54 106.69,61.54 		"/>
		<path class="st1" d="M109.24,60.15c0.01-0.08,0.02-0.17,0.04-0.25l0.52-2.28c0.23-1.03,0.9-1.69,2.46-1.69
			c1.31,0,1.88,0.75,1.85,1.5c-0.01,0.07-0.02,0.17-0.04,0.25l-0.52,2.26c-0.24,1.05-0.9,1.69-2.53,1.69
			C109.72,61.62,109.21,60.9,109.24,60.15 M112.87,57.55c0.02-0.34-0.19-0.55-0.79-0.55c-0.63,0-0.98,0.28-1.08,0.72l-0.48,2.11
			c-0.01,0.07-0.03,0.13-0.03,0.19c-0.02,0.34,0.19,0.52,0.79,0.52c0.63,0,0.98-0.24,1.08-0.71l0.48-2.11
			C112.86,57.66,112.87,57.6,112.87,57.55"/>
		<polygon class="st1" points="116.2,57.74 115.34,61.54 114.15,61.54 115.41,56.01 116.89,56.01 117.89,60.02 118.81,56.01 
			120,56.01 118.74,61.54 117.23,61.54 		"/>
		<path class="st1" d="M9.6,60.43H7.72l-0.56,1.09H5.84l2.95-5.53h1.67l0.5,5.53h-1.3L9.6,60.43z M8.22,59.42h1.32l-0.11-2.41
			L8.22,59.42z"/>
	</g>
	<g>
		<path class="st1" d="M164.36,60.92c-0.69,0.56-1.44,0.84-2.25,0.84c-0.83,0-1.47-0.29-1.92-0.86c-0.45-0.57-0.59-1.27-0.41-2.11
			c0.19-0.87,0.65-1.58,1.38-2.16c0.69-0.54,1.43-0.8,2.21-0.8c0.82,0,1.45,0.29,1.91,0.87c0.45,0.58,0.6,1.28,0.42,2.09
			C165.52,59.63,165.07,60.34,164.36,60.92z M162.21,61.26c0.67,0,1.3-0.24,1.88-0.72c0.58-0.48,0.94-1.07,1.08-1.74
			c0.14-0.66,0.02-1.23-0.35-1.72c-0.37-0.49-0.9-0.74-1.57-0.74c-0.68,0-1.31,0.25-1.9,0.74c-0.57,0.48-0.93,1.05-1.07,1.72
			c-0.14,0.69-0.03,1.27,0.35,1.75C161.01,61.02,161.54,61.26,162.21,61.26z M163.77,60.25c-0.01,0.03-0.01,0.06,0,0.1l0.01,0.09
			h-0.82c-0.01-0.1,0.01-0.26,0.04-0.45c0.03-0.2,0.04-0.33,0.03-0.4c-0.02-0.12-0.08-0.2-0.19-0.24c-0.06-0.03-0.15-0.04-0.28-0.05
			l-0.19-0.01h-0.18l-0.24,1.16h-0.86l0.7-3.28c0.2,0,0.51,0,0.91,0c0.4,0,0.63,0,0.68,0.01c0.26,0.02,0.46,0.08,0.61,0.17
			c0.26,0.16,0.35,0.42,0.27,0.78c-0.06,0.28-0.18,0.48-0.36,0.6c-0.18,0.12-0.38,0.2-0.61,0.22c0.2,0.04,0.34,0.11,0.43,0.19
			c0.16,0.16,0.2,0.4,0.13,0.74l-0.06,0.29C163.77,60.19,163.77,60.22,163.77,60.25z M162.65,58.69c0.2,0,0.37-0.04,0.49-0.12
			c0.13-0.08,0.21-0.21,0.25-0.39c0.04-0.18-0.03-0.3-0.19-0.37c-0.11-0.05-0.27-0.07-0.48-0.07h-0.21l-0.2,0.95H162.65z"/>
	</g>
</g>
</svg>
