<svg width="180" height="180" version="1.1" xmlns="http://www.w3.org/2000/svg" desc="Created with imagetracer.js version 1.2.6" ><path fill="rgb(17,89,93)" stroke="rgb(17,89,93)" stroke-width="1" opacity="1" d="M 93 37 L 102.5 37 L 104 38.5 L 102.5 39 Q 101.2 36.8 96.5 38 L 96.5 39 L 98 39.5 L 95 40.5 L 98 41 L 98.5 43 L 99.5 40 Q 103.2 42.2 98 44.5 L 98.5 46 L 100 45.5 L 99.5 48 L 95.5 42 Q 94.3 44.3 93 41.5 L 93 37 Z " /><path fill="rgb(17,89,93)" stroke="rgb(17,89,93)" stroke-width="1" opacity="1" d="M 93.5 44 Q 96.3 45.3 94 46.5 L 94.5 48 L 96 47.5 L 94.5 50 L 96.5 49 L 101 52.5 L 99 53.5 L 100.5 57 L 101.5 55 L 102 56.5 L 95 61.5 Q 96.3 66.3 93 65 L 93 49.5 L 94 48.5 L 93.5 44 Z " /><path fill="rgb(17,89,93)" stroke="rgb(17,89,93)" stroke-width="1" opacity="1" d="M 103.5 46 L 104 48.5 L 103.5 51 Q 100.8 49.7 103 48.5 L 103.5 46 Z " /><path fill="rgb(17,89,93)" stroke="rgb(17,89,93)" stroke-width="1" opacity="1" d="M 129.5 54 L 133.5 59 L 132.5 58 L 130 59.5 L 131 57.5 L 129.5 55 L 128.5 57 L 128 55.5 L 129.5 54 Z " /><path fill="rgb(17,89,93)" stroke="rgb(17,89,93)" stroke-width="1" opacity="1" d="M 131.5 61 L 132 63 L 129 62.5 L 131.5 61 Z " /><path fill="rgb(17,89,93)" stroke="rgb(17,89,93)" stroke-width="1" opacity="1" d="M 132.5 66 L 133.5 68 L 132.5 66 Z " /><path fill="rgb(17,89,93)" stroke="rgb(17,89,93)" stroke-width="1" opacity="1" d="M 138.5 68 L 137.5 70 L 136 69.5 L 138.5 68 Z " /><path fill="rgb(17,89,93)" stroke="rgb(17,89,93)" stroke-width="1" opacity="1" d="M 93.5 73 L 97 74.5 L 95.5 75 L 93.5 73 Z " /><path fill="rgb(17,89,93)" stroke="rgb(17,89,93)" stroke-width="1" opacity="1" d="M 99.5 76 L 103 76.5 L 99.5 77 L 99.5 76 Z " /><path fill="rgb(17,89,93)" stroke="rgb(17,89,93)" stroke-width="1" opacity="1" d="M 140.5 77 L 141 79.5 L 140 79.5 L 140.5 77 Z " /><path fill="rgb(17,89,93)" stroke="rgb(17,89,93)" stroke-width="1" opacity="1" d="M 125.5 79 L 126 82.5 L 125 82.5 L 125.5 79 Z " /><path fill="rgb(17,89,93)" stroke="rgb(17,89,93)" stroke-width="1" opacity="1" d="M 103.5 82 L 107 83.5 L 105.5 84 L 103.5 82 Z " /><path fill="rgb(17,89,93)" stroke="rgb(17,89,93)" stroke-width="1" opacity="1" d="M 94.5 83 L 97 83.5 L 93.5 85 L 94.5 83 Z " /><path fill="rgb(17,89,93)" stroke="rgb(17,89,93)" stroke-width="1" opacity="1" d="M 108.5 83 L 111.5 87 L 108.5 83 Z " /><path fill="rgb(17,89,93)" stroke="rgb(17,89,93)" stroke-width="1" opacity="1" d="M 96.5 88 L 95.5 90 L 96.5 88 Z " /><path fill="rgb(17,89,93)" stroke="rgb(17,89,93)" stroke-width="1" opacity="1" d="M 136.5 88 L 137 92.5 L 136 92.5 L 136.5 88 Z " /><path fill="rgb(17,89,93)" stroke="rgb(17,89,93)" stroke-width="1" opacity="1" d="M 23.5 91 L 88 91.5 L 23.5 92 L 23.5 91 Z " /><path fill="rgb(17,89,93)" stroke="rgb(17,89,93)" stroke-width="1" opacity="1" d="M 29.5 96 L 32 97.5 L 30.5 97 L 29.5 96 Z " /><path fill="rgb(17,89,93)" stroke="rgb(17,89,93)" stroke-width="1" opacity="1" d="M 41.5 96 L 43 96.5 L 40.5 98 L 41.5 96 Z " /><path fill="rgb(17,89,93)" stroke="rgb(17,89,93)" stroke-width="1" opacity="1" d="M 135.5 99 L 136 101.5 L 135 101.5 L 135.5 99 Z " /><path fill="rgb(17,89,93)" stroke="rgb(17,89,93)" stroke-width="1" opacity="1" d="M 97.5 101 L 98.5 103 L 97.5 101 Z " /><path fill="rgb(17,89,93)" stroke="rgb(17,89,93)" stroke-width="1" opacity="1" d="M 120.5 105 L 119.5 107 L 120.5 105 Z " /><path fill="rgb(17,89,93)" stroke="rgb(17,89,93)" stroke-width="1" opacity="1" d="M 100.5 111 L 101 113.5 L 100 113.5 L 100.5 111 Z " /><path fill="rgb(17,89,93)" stroke="rgb(17,89,93)" stroke-width="1" opacity="1" d="M 105.5 118 L 103.5 121 L 105.5 118 Z " /><path fill="rgb(17,89,93)" stroke="rgb(17,89,93)" stroke-width="1" opacity="1" d="M 30.5 120 L 31.5 121 L 57 121.5 L 31.5 122 L 30.5 120 Z " /><path fill="rgb(17,89,93)" stroke="rgb(17,89,93)" stroke-width="1" opacity="1" d="M 61.5 120 L 62.5 121 L 80 121.5 L 62.5 122 L 61.5 120 Z " /><path fill="rgb(17,89,93)" stroke="rgb(17,89,93)" stroke-width="1" opacity="1" d="M 112.5 126 Q 114.8 125.3 114 127.5 L 112.5 126 Z " /><path fill="rgb(17,89,93)" stroke="rgb(17,89,93)" stroke-width="1" opacity="1" d="M 74.5 127 L 73.5 129 L 74.5 127 Z " /><path fill="rgb(17,89,93)" stroke="rgb(17,89,93)" stroke-width="1" opacity="1" d="M 93.5 129 L 96 129.5 L 93.5 130 L 93.5 129 Z " /><path fill="rgb(17,89,93)" stroke="rgb(17,89,93)" stroke-width="1" opacity="1" d="M 97.5 129 L 104 130.5 L 101.5 131 L 97.5 130 L 97.5 129 Z " /><path fill="rgb(17,89,93)" stroke="rgb(17,89,93)" stroke-width="1" opacity="1" d="M 39.5 131 L 39 132.5 L 38.5 134 L 38 132.5 L 39.5 131 Z " /><path fill="rgb(17,89,93)" stroke="rgb(17,89,93)" stroke-width="1" opacity="1" d="M 26.5 136 L 39 136.5 L 26.5 137 L 26.5 136 Z " /><path fill="rgb(17,89,93)" stroke="rgb(17,89,93)" stroke-width="1" opacity="1" d="M 57.5 136 L 85 136.5 L 57.5 137 L 57.5 136 Z " /><path fill="rgb(17,89,93)" stroke="rgb(17,89,93)" stroke-width="1" opacity="1" d="M 23.5 138 L 40 138.5 L 23.5 139 L 23.5 138 Z " /><path fill="rgb(17,89,93)" stroke="rgb(17,89,93)" stroke-width="1" opacity="1" d="M 66.5 138 L 88 138.5 L 66.5 139 L 66.5 138 Z " /><path fill="rgb(17,89,93)" stroke="rgb(17,89,93)" stroke-width="1" opacity="1" d="M 56.5 168 L 57 170.5 L 56 170.5 L 56.5 168 Z " /><path fill="rgb(33,211,158)" stroke="rgb(33,211,158)" stroke-width="1" opacity="1" d="M 18.5 16 L 92 16.5 L 18.5 17 L 18.5 16 Z " /><path fill="rgb(33,211,158)" stroke="rgb(33,211,158)" stroke-width="1" opacity="1" d="M 27.5 32 L 36 32.5 L 27.5 33 L 27.5 32 Z " /><path fill="rgb(33,211,158)" stroke="rgb(33,211,158)" stroke-width="1" opacity="1" d="M 59.5 32 L 70 32.5 L 59.5 33 L 59.5 32 Z " /><path fill="rgb(33,211,158)" stroke="rgb(33,211,158)" stroke-width="1" opacity="1" d="M 37.5 34 L 38 78.5 L 37 78.5 L 37.5 34 Z " /><path fill="rgb(33,211,158)" stroke="rgb(33,211,158)" stroke-width="1" opacity="1" d="M 57.5 34 L 58 35.5 L 56.5 38 L 56 36.5 L 57.5 34 Z " /><path fill="rgb(33,211,158)" stroke="rgb(33,211,158)" stroke-width="1" opacity="1" d="M 55.5 39 L 56 40.5 L 54.5 43 L 54 41.5 L 55.5 39 Z " /><path fill="rgb(33,211,158)" stroke="rgb(33,211,158)" stroke-width="1" opacity="1" d="M 64.5 45 L 65 46.5 L 62.5 51 L 62 49.5 L 64.5 45 Z " /><path fill="rgb(33,211,158)" stroke="rgb(33,211,158)" stroke-width="1" opacity="1" d="M 52.5 46 L 53 47.5 L 51.5 50 L 51 48.5 L 52.5 46 Z " /><path fill="rgb(33,211,158)" stroke="rgb(33,211,158)" stroke-width="1" opacity="1" d="M 77.5 49 L 79 52.5 L 78 52.5 L 77.5 49 Z " /><path fill="rgb(33,211,158)" stroke="rgb(33,211,158)" stroke-width="1" opacity="1" d="M 50.5 51 L 51 52.5 L 49.5 55 L 49 53.5 L 50.5 51 Z " /><path fill="rgb(33,211,158)" stroke="rgb(33,211,158)" stroke-width="1" opacity="1" d="M 66.5 51 L 68 54.5 L 67 54.5 L 66.5 51 Z " /><path fill="rgb(33,211,158)" stroke="rgb(33,211,158)" stroke-width="1" opacity="1" d="M 61.5 52 L 62 53.5 L 60.5 56 L 60 54.5 L 61.5 52 Z " /><path fill="rgb(33,211,158)" stroke="rgb(33,211,158)" stroke-width="1" opacity="1" d="M 79.5 54 L 81 57.5 L 80 57.5 L 79.5 54 Z " /><path fill="rgb(33,211,158)" stroke="rgb(33,211,158)" stroke-width="1" opacity="1" d="M 68.5 56 L 70 58.5 L 59 59 L 59.5 57 L 60.5 58 L 68 58 L 68.5 56 Z " /><path fill="rgb(33,211,158)" stroke="rgb(33,211,158)" stroke-width="1" opacity="1" d="M 81.5 59 L 83 62.5 L 82 62.5 L 81.5 59 Z " /><path fill="rgb(33,211,158)" stroke="rgb(33,211,158)" stroke-width="1" opacity="1" d="M 45.5 63 L 46 64.5 L 44.5 67 L 44 65.5 L 45.5 63 Z " /><path fill="rgb(33,211,158)" stroke="rgb(33,211,158)" stroke-width="1" opacity="1" d="M 83.5 64 L 85 67.5 L 84 67.5 L 83.5 64 Z " /><path fill="rgb(33,211,158)" stroke="rgb(33,211,158)" stroke-width="1" opacity="1" d="M 43.5 68 L 44 69.5 L 42.5 72 L 42 70.5 L 43.5 68 Z " /><path fill="rgb(33,211,158)" stroke="rgb(33,211,158)" stroke-width="1" opacity="1" d="M 55.5 68 L 72.5 68 L 74 69.5 L 73.5 71 L 73 69 L 55.5 69 L 55.5 68 Z " /><path fill="rgb(33,211,158)" stroke="rgb(33,211,158)" stroke-width="1" opacity="1" d="M 54.5 70 L 55 71.5 L 53.5 74 L 53 72.5 L 54.5 70 Z " /><path fill="rgb(33,211,158)" stroke="rgb(33,211,158)" stroke-width="1" opacity="1" d="M 41.5 73 L 42 74.5 L 40.5 77 L 40 75.5 L 41.5 73 Z " /><path fill="rgb(33,211,158)" stroke="rgb(33,211,158)" stroke-width="1" opacity="1" d="M 52.5 75 L 53 76.5 L 51.5 79 L 51 77.5 L 52.5 75 Z " /><path fill="rgb(33,211,158)" stroke="rgb(33,211,158)" stroke-width="1" opacity="1" d="M 88.5 76 L 90 78.5 L 88 77.5 L 88.5 76 Z " /><path fill="rgb(33,211,158)" stroke="rgb(33,211,158)" stroke-width="1" opacity="1" d="M 27.5 80 L 36 80.5 L 27.5 81 L 27.5 80 Z " /><path fill="rgb(33,211,158)" stroke="rgb(33,211,158)" stroke-width="1" opacity="1" d="M 40.5 80 L 50 80.5 L 40.5 81 L 40.5 80 Z " /><path fill="rgb(33,211,158)" stroke="rgb(33,211,158)" stroke-width="1" opacity="1" d="M 78.5 80 L 88 80.5 L 78.5 81 L 78.5 80 Z " /><path fill="rgb(33,211,158)" stroke="rgb(33,211,158)" stroke-width="1" opacity="1" d="M 23.5 90 L 88 90.5 L 23.5 91 L 23.5 90 Z " /><path fill="rgb(33,211,158)" stroke="rgb(33,211,158)" stroke-width="1" opacity="1" d="M 89.5 92 L 90 137.5 L 89 137.5 L 89.5 92 Z " /><path fill="rgb(33,211,158)" stroke="rgb(33,211,158)" stroke-width="1" opacity="1" d="M 21.5 94 L 22 135.5 L 21 135.5 L 21.5 94 Z " /><path fill="rgb(33,211,158)" stroke="rgb(33,211,158)" stroke-width="1" opacity="1" d="M 26 94 L 85 94.5 L 83 95.5 L 85 96 L 84 98.5 L 84.5 100 L 82 99.5 L 83 96.5 Q 81.3 93.3 74.5 95 L 73 98.5 L 73.5 100 L 69 99.5 L 72 99 L 73 95.5 L 70.5 95 L 70.5 97 L 66.5 95 L 44.5 95 L 40 96 L 40.5 99 L 67.5 99 L 67.5 100 L 26 99.5 L 32 99 Q 33.8 94.5 28.5 96 L 27 95.5 L 26.5 98 L 26 94 Z M 33 95 L 34 98 L 33 99 L 39 99 L 40 95 L 38 96 L 33 95 Z " /><path fill="rgb(33,211,158)" stroke="rgb(33,211,158)" stroke-width="1" opacity="1" d="M 76.5 99 L 80 99.5 L 76.5 100 L 76.5 99 Z " /><path fill="rgb(33,211,158)" stroke="rgb(33,211,158)" stroke-width="1" opacity="1" d="M 26.5 103 L 27.5 107 L 31.5 104 L 33.5 107 L 30.5 105 L 27 108.5 L 27 135 L 39 135.5 L 26 136 L 26.5 103 Z " /><path fill="rgb(33,211,158)" stroke="rgb(33,211,158)" stroke-width="1" opacity="1" d="M 84.5 103 L 85 133.5 L 84 133.5 L 84.5 103 Z " /><path fill="rgb(33,211,158)" stroke="rgb(33,211,158)" stroke-width="1" opacity="1" d="M 43.5 104 L 42 106.5 L 43 108.5 L 41.5 108 Q 39.3 107.3 40 109.5 L 38 110.5 L 43.5 104 Z " /><path fill="rgb(33,211,158)" stroke="rgb(33,211,158)" stroke-width="1" opacity="1" d="M 45.5 105 L 46.5 107 L 45.5 105 Z " /><path fill="rgb(33,211,158)" stroke="rgb(33,211,158)" stroke-width="1" opacity="1" d="M 34.5 109 L 34 110.5 L 33.5 112 L 33 110.5 L 34.5 109 Z " /><path fill="rgb(33,211,158)" stroke="rgb(33,211,158)" stroke-width="1" opacity="1" d="M 28.5 110 L 29.5 112 L 28.5 110 Z " /><path fill="rgb(33,211,158)" stroke="rgb(33,211,158)" stroke-width="1" opacity="1" d="M 46.5 110 L 45.5 112 L 46.5 110 Z " /><path fill="rgb(33,211,158)" stroke="rgb(33,211,158)" stroke-width="1" opacity="1" d="M 37.5 112 L 38.5 113 L 50 113.5 L 30 114 L 29.5 117 L 29 114.5 L 30.5 113 Q 36 114.5 37.5 112 Z " /><path fill="rgb(33,211,158)" stroke="rgb(33,211,158)" stroke-width="1" opacity="1" d="M 54.5 113 L 81 113.5 L 54.5 114 L 54.5 113 Z " /><path fill="rgb(33,211,158)" stroke="rgb(33,211,158)" stroke-width="1" opacity="1" d="M 31 117 L 54.5 118 L 55.5 117 L 80 117 L 79.5 119 L 62.5 119 L 57.5 118 L 56.5 119 L 31 119 L 31 117 Z " /><path fill="rgb(33,211,158)" stroke="rgb(33,211,158)" stroke-width="1" opacity="1" d="M 29.5 119 L 30 122 L 59.5 122 L 60 119.5 L 61 119.5 L 61.5 122 L 80.5 122 L 80.5 123 L 61.5 123 L 60.5 122 L 59.5 123 L 30.5 123 Q 28 122 29.5 119 Z " /><path fill="rgb(33,211,158)" stroke="rgb(33,211,158)" stroke-width="1" opacity="1" d="M 31.5 127 L 50 127.5 L 31.5 128 L 31.5 127 Z " /><path fill="rgb(33,211,158)" stroke="rgb(33,211,158)" stroke-width="1" opacity="1" d="M 54.5 127 L 65.5 127 L 66 128.5 L 64 129.5 L 64.5 128 L 54.5 128 L 54.5 127 Z " /><path fill="rgb(33,211,158)" stroke="rgb(33,211,158)" stroke-width="1" opacity="1" d="M 68.5 127 Q 73.9 125.1 73 128.5 L 71.5 128 Q 67.5 128.8 68.5 127 Z " /><path fill="rgb(33,211,158)" stroke="rgb(33,211,158)" stroke-width="1" opacity="1" d="M 76.5 127 L 79 127.5 L 78 129.5 L 79 131.5 L 78 133.5 Q 79.6 136.4 85 135.5 L 56.5 136 L 56.5 135 L 67.5 135 L 69 133.5 L 68 130.5 L 70 129.5 L 69 131.5 L 72 130.5 L 69 134.5 L 77.5 135 L 77 133.5 L 78 130 L 76 129.5 L 76.5 127 Z " /><path fill="rgb(33,211,158)" stroke="rgb(33,211,158)" stroke-width="1" opacity="1" d="M 81.5 128 L 82.5 130 L 81.5 128 Z " /><path fill="rgb(33,211,158)" stroke="rgb(33,211,158)" stroke-width="1" opacity="1" d="M 39.5 130 L 42 130.5 L 39.5 131 L 39.5 130 Z " /><path fill="rgb(33,211,158)" stroke="rgb(33,211,158)" stroke-width="1" opacity="1" d="M 46.5 132 L 52 133.5 L 49.5 134 L 46.5 133 L 46.5 132 Z " /><path fill="rgb(33,211,158)" stroke="rgb(33,211,158)" stroke-width="1" opacity="1" d="M 63.5 132 L 64.5 134 L 63.5 132 Z " /><path fill="rgb(33,211,158)" stroke="rgb(33,211,158)" stroke-width="1" opacity="1" d="M 23.5 139 L 40 139.5 L 23.5 140 L 23.5 139 Z " /><path fill="rgb(33,211,158)" stroke="rgb(33,211,158)" stroke-width="1" opacity="1" d="M 69.5 139 L 88 139.5 L 75.5 140 L 73.5 141 L 69.5 140 L 69.5 139 Z " /><path fill="rgb(33,211,158)" stroke="rgb(33,211,158)" stroke-width="1" opacity="1" d="M 40.5 141 L 42 144.5 L 41 144.5 L 40.5 141 Z " /><path fill="rgb(33,211,158)" stroke="rgb(33,211,158)" stroke-width="1" opacity="1" d="M 83.5 143 L 87 144.5 L 85.5 144 Q 82.5 144.5 83.5 143 Z " /><path fill="rgb(33,211,158)" stroke="rgb(33,211,158)" stroke-width="1" opacity="1" d="M 87.5 147 L 86.5 149 L 87.5 147 Z " /><path fill="rgb(33,211,158)" stroke="rgb(33,211,158)" stroke-width="1" opacity="1" d="M 81.5 149 L 84 149.5 L 81.5 150 L 81.5 149 Z " /><path fill="rgb(33,211,158)" stroke="rgb(33,211,158)" stroke-width="1" opacity="1" d="M 77.5 150 L 92 151.5 L 73.5 152 L 73.5 151 L 77.5 150 Z " /><path fill="rgb(33,211,158)" stroke="rgb(33,211,158)" stroke-width="1" opacity="1" d="M 18.5 151 L 45 151.5 L 18.5 152 L 18.5 151 Z " /><path fill="rgb(170,60,24)" stroke="rgb(170,60,24)" stroke-width="1" opacity="1" d="M 88.5 8 L 99 8.5 L 88.5 9 L 88.5 8 Z " /><path fill="rgb(170,60,24)" stroke="rgb(170,60,24)" stroke-width="1" opacity="1" d="M 85.5 13 Q 87 15.5 92.5 14 L 94 15.5 L 94 31.5 L 95 33.5 L 93.5 36 L 93 15 L 85.5 15 L 85.5 13 Z " /><path fill="rgb(170,60,24)" stroke="rgb(170,60,24)" stroke-width="1" opacity="1" d="M 102.5 18 L 104 20.5 L 102 19.5 L 102.5 18 Z " /><path fill="rgb(170,60,24)" stroke="rgb(170,60,24)" stroke-width="1" opacity="1" d="M 122.5 18 L 119.5 22 L 122.5 18 Z " /><path fill="rgb(170,60,24)" stroke="rgb(170,60,24)" stroke-width="1" opacity="1" d="M 131.5 18 L 132.5 20 L 131.5 18 Z " /><path fill="rgb(170,60,24)" stroke="rgb(170,60,24)" stroke-width="1" opacity="1" d="M 100.5 24 L 99.5 26 L 100.5 24 Z " /><path fill="rgb(170,60,24)" stroke="rgb(170,60,24)" stroke-width="1" opacity="1" d="M 101.5 26 L 100.5 28 L 101.5 26 Z " /><path fill="rgb(170,60,24)" stroke="rgb(170,60,24)" stroke-width="1" opacity="1" d="M 111.5 26 L 114 26.5 L 111 27.5 L 114 28.5 L 110 29 L 111.5 26 Z " /><path fill="rgb(170,60,24)" stroke="rgb(170,60,24)" stroke-width="1" opacity="1" d="M 116.5 27 L 117.5 29 L 116.5 27 Z " /><path fill="rgb(170,60,24)" stroke="rgb(170,60,24)" stroke-width="1" opacity="1" d="M 97.5 28 L 96.5 30 L 97.5 28 Z " /><path fill="rgb(170,60,24)" stroke="rgb(170,60,24)" stroke-width="1" opacity="1" d="M 101.5 32 L 105 33.5 L 104.5 35 L 104 33 Q 100.7 33.8 101.5 32 Z " /><path fill="rgb(170,60,24)" stroke="rgb(170,60,24)" stroke-width="1" opacity="1" d="M 117.5 32 L 116.5 34 L 117.5 32 Z " /><path fill="rgb(170,60,24)" stroke="rgb(170,60,24)" stroke-width="1" opacity="1" d="M 133.5 33 L 142.5 43 L 133.5 33 Z " /><path fill="rgb(170,60,24)" stroke="rgb(170,60,24)" stroke-width="1" opacity="1" d="M 113.5 34 L 112.5 36 L 113.5 34 Z " /><path fill="rgb(170,60,24)" stroke="rgb(170,60,24)" stroke-width="1" opacity="1" d="M 120.5 34 L 119.5 36 L 120.5 34 Z " /><path fill="rgb(170,60,24)" stroke="rgb(170,60,24)" stroke-width="1" opacity="1" d="M 99.5 36 L 102 36.5 L 99.5 37 L 99.5 36 Z " /><path fill="rgb(170,60,24)" stroke="rgb(170,60,24)" stroke-width="1" opacity="1" d="M 115.5 36 Q 118.5 37.5 115.5 39 L 114 38.5 L 116 37.5 L 115.5 36 Z " /><path fill="rgb(170,60,24)" stroke="rgb(170,60,24)" stroke-width="1" opacity="1" d="M 131.5 36 L 130.5 38 L 131.5 36 Z " /><path fill="rgb(170,60,24)" stroke="rgb(170,60,24)" stroke-width="1" opacity="1" d="M 121.5 37 L 121 38.5 L 120.5 40 L 120 38.5 L 121.5 37 Z " /><path fill="rgb(170,60,24)" stroke="rgb(170,60,24)" stroke-width="1" opacity="1" d="M 117.5 39 L 118.5 41 L 117.5 39 Z " /><path fill="rgb(170,60,24)" stroke="rgb(170,60,24)" stroke-width="1" opacity="1" d="M 120.5 41 L 121.5 43 L 120.5 41 Z " /><path fill="rgb(170,60,24)" stroke="rgb(170,60,24)" stroke-width="1" opacity="1" d="M 132.5 41 L 130.5 44 L 132.5 41 Z " /><path fill="rgb(170,60,24)" stroke="rgb(170,60,24)" stroke-width="1" opacity="1" d="M 135.5 42 L 137.5 45 L 135.5 42 Z " /><path fill="rgb(170,60,24)" stroke="rgb(170,60,24)" stroke-width="1" opacity="1" d="M 138.5 42 L 140 44.5 L 139 44.5 L 138.5 42 Z " /><path fill="rgb(170,60,24)" stroke="rgb(170,60,24)" stroke-width="1" opacity="1" d="M 119.5 43 L 120.5 45 L 119.5 43 Z " /><path fill="rgb(170,60,24)" stroke="rgb(170,60,24)" stroke-width="1" opacity="1" d="M 123.5 46 L 125.5 49 L 123.5 46 Z " /><path fill="rgb(170,60,24)" stroke="rgb(170,60,24)" stroke-width="1" opacity="1" d="M 130.5 47 L 129.5 49 L 130.5 47 Z " /><path fill="rgb(170,60,24)" stroke="rgb(170,60,24)" stroke-width="1" opacity="1" d="M 129.5 52 L 131.5 55 L 129.5 52 Z " /><path fill="rgb(170,60,24)" stroke="rgb(170,60,24)" stroke-width="1" opacity="1" d="M 145.5 52 L 146.5 54 L 145.5 52 Z " /><path fill="rgb(170,60,24)" stroke="rgb(170,60,24)" stroke-width="1" opacity="1" d="M 140.5 53 L 141 55.5 L 140 55.5 L 140.5 53 Z " /><path fill="rgb(170,60,24)" stroke="rgb(170,60,24)" stroke-width="1" opacity="1" d="M 136.5 54 L 139 55.5 L 138.5 57 L 138 55 L 136.5 54 Z " /><path fill="rgb(170,60,24)" stroke="rgb(170,60,24)" stroke-width="1" opacity="1" d="M 144.5 54 L 145.5 56 L 144.5 54 Z " /><path fill="rgb(170,60,24)" stroke="rgb(170,60,24)" stroke-width="1" opacity="1" d="M 158.5 55 L 155.5 59 L 158.5 55 Z " /><path fill="rgb(170,60,24)" stroke="rgb(170,60,24)" stroke-width="1" opacity="1" d="M 148.5 57 L 149 58.5 L 146 60 L 146.5 58 L 148 58.5 L 148.5 57 Z " /><path fill="rgb(170,60,24)" stroke="rgb(170,60,24)" stroke-width="1" opacity="1" d="M 148.5 63 L 152 65.5 L 149.5 64 L 148.5 63 Z " /><path fill="rgb(170,60,24)" stroke="rgb(170,60,24)" stroke-width="1" opacity="1" d="M 149.5 66 L 150.5 68 L 149.5 66 Z " /><path fill="rgb(170,60,24)" stroke="rgb(170,60,24)" stroke-width="1" opacity="1" d="M 144.5 71 L 145.5 73 L 144.5 71 Z " /><path fill="rgb(170,60,24)" stroke="rgb(170,60,24)" stroke-width="1" opacity="1" d="M 150.5 71 L 149.5 73 L 150.5 71 Z " /><path fill="rgb(170,60,24)" stroke="rgb(170,60,24)" stroke-width="1" opacity="1" d="M 143.5 73 L 147 75.5 L 145.5 76 L 143.5 73 Z " /><path fill="rgb(170,60,24)" stroke="rgb(170,60,24)" stroke-width="1" opacity="1" d="M 144.5 78 L 147 78.5 L 144.5 79 L 144.5 78 Z " /><path fill="rgb(170,60,24)" stroke="rgb(170,60,24)" stroke-width="1" opacity="1" d="M 141.5 79 L 142 88.5 L 141 88.5 L 141.5 79 Z " /><path fill="rgb(170,60,24)" stroke="rgb(170,60,24)" stroke-width="1" opacity="1" d="M 147.5 80 L 155 80.5 L 147.5 81 L 147.5 80 Z " /><path fill="rgb(170,60,24)" stroke="rgb(170,60,24)" stroke-width="1" opacity="1" d="M 146.5 82 L 147 86.5 L 146 86.5 L 146.5 82 Z " /><path fill="rgb(170,60,24)" stroke="rgb(170,60,24)" stroke-width="1" opacity="1" d="M 144.5 84 L 145 86.5 L 144 86.5 L 144.5 84 Z " /><path fill="rgb(170,60,24)" stroke="rgb(170,60,24)" stroke-width="1" opacity="1" d="M 146.5 88 L 150 88.5 L 146.5 89 L 146.5 88 Z " /><path fill="rgb(170,60,24)" stroke="rgb(170,60,24)" stroke-width="1" opacity="1" d="M 150.5 91 L 153 91.5 L 150.5 92 L 150.5 91 Z " /><path fill="rgb(170,60,24)" stroke="rgb(170,60,24)" stroke-width="1" opacity="1" d="M 145.5 93 L 146 95.5 L 145 95.5 L 145.5 93 Z " /><path fill="rgb(170,60,24)" stroke="rgb(170,60,24)" stroke-width="1" opacity="1" d="M 148.5 97 L 151 97.5 L 148.5 98 L 148.5 97 Z " /><path fill="rgb(170,60,24)" stroke="rgb(170,60,24)" stroke-width="1" opacity="1" d="M 153.5 98 L 154 99.5 L 151.5 101 L 151.5 100 Q 154 100.7 153.5 98 Z " /><path fill="rgb(170,60,24)" stroke="rgb(170,60,24)" stroke-width="1" opacity="1" d="M 146.5 104 L 147.5 106 L 146.5 104 Z " /><path fill="rgb(170,60,24)" stroke="rgb(170,60,24)" stroke-width="1" opacity="1" d="M 155.5 109 L 159.5 114 L 155.5 109 Z " /><path fill="rgb(170,60,24)" stroke="rgb(170,60,24)" stroke-width="1" opacity="1" d="M 145.5 112 L 146.5 114 L 145.5 112 Z " /><path fill="rgb(170,60,24)" stroke="rgb(170,60,24)" stroke-width="1" opacity="1" d="M 131.5 113 L 129.5 116 L 131.5 113 Z " /><path fill="rgb(170,60,24)" stroke="rgb(170,60,24)" stroke-width="1" opacity="1" d="M 139.5 115 L 140.5 117 L 139.5 115 Z " /><path fill="rgb(170,60,24)" stroke="rgb(170,60,24)" stroke-width="1" opacity="1" d="M 145.5 116 L 146 117.5 L 143.5 119 L 142.5 117 L 145 118 L 145.5 116 Z " /><path fill="rgb(170,60,24)" stroke="rgb(170,60,24)" stroke-width="1" opacity="1" d="M 125.5 119 L 123.5 122 L 125.5 119 Z " /><path fill="rgb(170,60,24)" stroke="rgb(170,60,24)" stroke-width="1" opacity="1" d="M 136.5 119 L 137.5 121 L 136.5 119 Z " /><path fill="rgb(170,60,24)" stroke="rgb(170,60,24)" stroke-width="1" opacity="1" d="M 128.5 122 L 129 125.5 L 128 125.5 L 128.5 122 Z " /><path fill="rgb(170,60,24)" stroke="rgb(170,60,24)" stroke-width="1" opacity="1" d="M 120.5 123 L 119.5 125 L 120.5 123 Z " /><path fill="rgb(170,60,24)" stroke="rgb(170,60,24)" stroke-width="1" opacity="1" d="M 137.5 124 L 135.5 127 L 133 126.5 L 137.5 124 Z " /><path fill="rgb(170,60,24)" stroke="rgb(170,60,24)" stroke-width="1" opacity="1" d="M 125.5 125 L 126.5 127 L 125.5 125 Z " /><path fill="rgb(170,60,24)" stroke="rgb(170,60,24)" stroke-width="1" opacity="1" d="M 139.5 125 L 137.5 128 L 139.5 125 Z " /><path fill="rgb(170,60,24)" stroke="rgb(170,60,24)" stroke-width="1" opacity="1" d="M 142.5 125 L 133.5 135 L 142.5 125 Z " /><path fill="rgb(170,60,24)" stroke="rgb(170,60,24)" stroke-width="1" opacity="1" d="M 104.5 130 L 107 130.5 L 104.5 131 L 104.5 130 Z " /><path fill="rgb(170,60,24)" stroke="rgb(170,60,24)" stroke-width="1" opacity="1" d="M 98.5 131 L 102 131.5 L 98.5 132 L 98.5 131 Z " /><path fill="rgb(170,60,24)" stroke="rgb(170,60,24)" stroke-width="1" opacity="1" d="M 112.5 131 L 115 132.5 L 114.5 134 L 114 132 L 112.5 131 Z " /><path fill="rgb(170,60,24)" stroke="rgb(170,60,24)" stroke-width="1" opacity="1" d="M 124.5 131 L 127 131.5 L 124.5 132 L 124.5 131 Z " /><path fill="rgb(170,60,24)" stroke="rgb(170,60,24)" stroke-width="1" opacity="1" d="M 93.5 132 L 94 152.5 Q 92.8 155.3 87.5 154 L 87.5 153 Q 92.9 153.6 93 152.5 L 93.5 132 Z " /><path fill="rgb(170,60,24)" stroke="rgb(170,60,24)" stroke-width="1" opacity="1" d="M 106.5 133 L 108 133.5 L 106 134.5 L 108 135.5 L 106.5 136 L 105 135.5 L 104.5 137 L 104 135.5 L 106.5 133 Z " /><path fill="rgb(170,60,24)" stroke="rgb(170,60,24)" stroke-width="1" opacity="1" d="M 130.5 133 L 129.5 135 L 127 134.5 L 130.5 133 Z " /><path fill="rgb(170,60,24)" stroke="rgb(170,60,24)" stroke-width="1" opacity="1" d="M 96.5 135 L 95.5 137 L 96.5 135 Z " /><path fill="rgb(170,60,24)" stroke="rgb(170,60,24)" stroke-width="1" opacity="1" d="M 108.5 137 L 110 137.5 L 107.5 139 L 108.5 137 Z " /><path fill="rgb(170,60,24)" stroke="rgb(170,60,24)" stroke-width="1" opacity="1" d="M 120.5 138 L 121.5 140 L 120.5 138 Z " /><path fill="rgb(170,60,24)" stroke="rgb(170,60,24)" stroke-width="1" opacity="1" d="M 96.5 143 L 102 143.5 L 96.5 144 L 96.5 143 Z " /><path fill="rgb(170,60,24)" stroke="rgb(170,60,24)" stroke-width="1" opacity="1" d="M 97.5 145 L 102 145.5 L 97.5 146 L 97.5 145 Z " /><path fill="rgb(170,60,24)" stroke="rgb(170,60,24)" stroke-width="1" opacity="1" d="M 118.5 145 L 122.5 150 L 118.5 145 Z " /><path fill="rgb(170,60,24)" stroke="rgb(170,60,24)" stroke-width="1" opacity="1" d="M 103.5 147 L 103 148.5 L 102.5 150 L 102 148.5 L 103.5 147 Z " /><path fill="rgb(170,60,24)" stroke="rgb(170,60,24)" stroke-width="1" opacity="1" d="M 132.5 148 L 131.5 150 L 132.5 148 Z " /><path fill="rgb(170,60,24)" stroke="rgb(170,60,24)" stroke-width="1" opacity="1" d="M 86.5 158 L 87.5 159 L 99.5 159 L 101 158.5 L 99.5 160 L 87.5 160 L 86.5 158 Z " /><path fill="rgb(0,0,0)" stroke="rgb(0,0,0)" stroke-width="1" opacity="1" d="M 0 0 L 180 0 L 180 180 L 0 180 L 0 0 Z M 86 8 L 85 12 L 85 15 L 17 15 L 17 153 L 18 153 L 46 153 L 41 140 L 41 138 L 23 138 L 23 92 L 88 92 L 88 138 L 65 139 L 87 147 L 65 153 L 85 153 L 86 158 L 87 160 L 101 160 L 103 148 L 111 147 L 117 144 L 125 153 L 129 152 L 138 146 L 134 136 L 144 125 L 156 128 L 163 116 L 154 108 L 157 99 L 157 94 L 169 92 L 170 89 Q 171 80 169 76 L 157 74 L 157 70 L 154 61 L 163 53 L 156 40 L 144 43 L 140 38 L 134 34 L 138 23 L 129 16 L 125 15 L 117 24 L 114 22 L 103 20 L 101 11 L 101 8 L 86 8 Z M 25 93 L 25 101 L 26 101 L 86 101 L 86 94 L 86 93 L 25 93 Z M 25 102 L 25 137 L 40 137 L 39 132 L 57 137 L 86 137 L 86 102 L 25 102 Z M 42 135 L 55 170 Q 54 173 57 172 L 57 166 L 60 151 L 80 147 L 76 144 L 42 135 Z " /><path fill="rgb(0,0,0)" stroke="rgb(0,0,0)" stroke-width="1" opacity="1" d="M 101.5 24 Q 105.4 27.6 106 34.5 L 105 34.5 L 103.5 32 L 97.5 31 L 95 32.5 L 101.5 24 Z M 102 26 Q 98 27 99 31 L 104 31 L 102 26 Z " /><path fill="rgb(0,0,0)" stroke="rgb(0,0,0)" stroke-width="1" opacity="1" d="M 111.5 27 Q 116.6 26.4 118 29.5 L 116.5 33 L 111 35.5 L 116 37.5 L 114.5 38 L 109 36 Q 107.8 33 111.5 34 L 116 31.5 L 114.5 28 Q 110.5 28.8 111.5 27 Z " /><path fill="rgb(0,0,0)" stroke="rgb(0,0,0)" stroke-width="1" opacity="1" d="M 122 32 L 124 32.5 L 120 39.5 L 125 42.5 L 123.5 43 L 118 40 L 122 32 Z " /><path fill="rgb(0,0,0)" stroke="rgb(0,0,0)" stroke-width="1" opacity="1" d="M 27 34 L 35.5 34 L 36 34.5 L 36 79 L 27.5 79 L 27 78.5 L 27 34 Z " /><path fill="rgb(0,0,0)" stroke="rgb(0,0,0)" stroke-width="1" opacity="1" d="M 59 34 L 69.5 34 L 70 35.5 L 88 78.5 L 78 79 L 74 67 L 54.5 67 L 54 68.5 L 50 79 L 41.5 79 L 41 77.5 L 59 34 Z M 65 43 L 57 60 L 71 60 L 65 43 Z " /><path fill="rgb(0,0,0)" stroke="rgb(0,0,0)" stroke-width="1" opacity="1" d="M 131.5 37 L 139 43.5 L 138.5 45 L 134.5 42 L 129.5 48 L 129 46.5 L 134 40.5 L 131.5 37 Z " /><path fill="rgb(0,0,0)" stroke="rgb(0,0,0)" stroke-width="1" opacity="1" d="M 105.5 38 Q 121.3 42.3 130 53.5 L 128 57 Q 131 55.8 130 59.5 L 131 62 Q 127.7 60.7 129 65.5 Q 126.5 67 130 68.5 L 128.5 72 Q 126.3 71.3 127 73.5 Q 124.1 77.4 125 84 Q 127.7 82.9 127 85.5 L 130.5 88 L 134.5 87 L 136 88.5 L 136 96.5 L 134 106.5 L 134 108.5 L 122.5 122 L 117.5 125 L 106.5 128 L 101.5 128 L 100 127.5 L 99.5 129 L 94 129 L 94 97.5 L 93 95.5 L 95 96.5 Q 96.4 102.6 101 105.5 L 101 108.5 L 98 122.5 L 99 125 L 103 124.5 L 103 122.5 L 106.5 118 L 109 116.5 Q 108.3 114.3 110.5 115 L 117 110 Q 115.9 107.3 118.5 108 L 122 104.5 L 126 95 L 117 90.5 L 114.5 87 L 108.5 83 L 100.5 81 Q 98.5 83.8 94 83 L 94 75 L 96.5 75 L 95.5 73 L 94 72.5 L 94 65.5 L 97.5 59 L 105 56.5 L 96 48.5 L 94 43.5 L 95.5 44 Q 97.8 43.3 97 45.5 L 104.5 51 L 104 49.5 L 105 44.5 L 98 39.5 L 105.5 38 Z M 109 47 L 107 49 L 111 50 Q 113 51 112 48 L 109 47 Z M 100 76 L 100 77 L 103 77 L 100 76 Z M 106 122 L 104 124 L 107 124 L 106 122 Z " /><path fill="rgb(0,0,0)" stroke="rgb(0,0,0)" stroke-width="1" opacity="1" d="M 142.5 52 Q 146.5 51.5 147 54.5 L 148 58.5 L 147 58.5 L 143.5 53 L 142 55.5 L 144 62 L 141.5 63 L 139 62 L 137 55.5 L 138 55.5 L 140.5 61 Q 143.8 62.1 143 59.5 L 141 53.5 L 142.5 52 Z " /><path fill="rgb(0,0,0)" stroke="rgb(0,0,0)" stroke-width="1" opacity="1" d="M 145.5 64 Q 151 63 152 66.5 L 153 70.5 L 149.5 75 Q 144 76 143 72.5 L 142 68.5 L 143 65 L 145.5 64 Z M 147 65 L 144 66 L 143 69 L 147 74 L 151 73 L 152 71 L 151 68 Q 151 65 147 65 Z " /><path fill="rgb(0,0,0)" stroke="rgb(0,0,0)" stroke-width="1" opacity="1" d="M 134.5 65 L 135 67 L 133 66.5 L 134.5 65 Z " /><path fill="rgb(0,0,0)" stroke="rgb(0,0,0)" stroke-width="1" opacity="1" d="M 145 79 L 154 79.5 L 146 80 L 145.5 87 L 145 79 Z " /><path fill="rgb(0,0,0)" stroke="rgb(0,0,0)" stroke-width="1" opacity="1" d="M 94 85 Q 97.3 83.7 96 88.5 L 93 90.5 L 94 85 Z " /><path fill="rgb(0,0,0)" stroke="rgb(0,0,0)" stroke-width="1" opacity="1" d="M 146.5 89 L 154 90.5 L 149.5 91 L 147.5 90 Q 143.8 91.5 145 97 L 151.5 98 L 153 99.5 L 150.5 100 L 144 98 Q 142.2 90.9 146.5 89 Z " /><path fill="rgb(0,0,0)" stroke="rgb(0,0,0)" stroke-width="1" opacity="1" d="M 28.5 97 L 31 97.5 L 28.5 98 L 28.5 97 Z " /><path fill="rgb(0,0,0)" stroke="rgb(0,0,0)" stroke-width="1" opacity="1" d="M 41.5 97 L 44 97.5 L 41.5 98 L 41.5 97 Z " /><path fill="rgb(0,0,0)" stroke="rgb(0,0,0)" stroke-width="1" opacity="1" d="M 67.5 97 L 70 97.5 Q 67.9 100.8 67.5 97 Z " /><path fill="rgb(0,0,0)" stroke="rgb(0,0,0)" stroke-width="1" opacity="1" d="M 74 97 Q 77 96 76 99 Q 73 100 74 97 Z " /><path fill="rgb(0,0,0)" stroke="rgb(0,0,0)" stroke-width="1" opacity="1" d="M 80 97 Q 83 96 82 99 Q 79 100 80 97 Z " /><path fill="rgb(0,0,0)" stroke="rgb(0,0,0)" stroke-width="1" opacity="1" d="M 143.5 102 Q 149.3 101.3 150 105.5 Q 150.7 111.7 146.5 113 L 148 110.5 L 149 106.5 L 144.5 103 L 141 105.5 L 139.5 110 L 139 107.5 L 143.5 102 Z " /><path fill="rgb(0,0,0)" stroke="rgb(0,0,0)" stroke-width="1" opacity="1" d="M 38.5 105 L 39 107.5 L 37 112 Q 34.3 113.1 35 110.5 L 38.5 105 Z " /><path fill="rgb(0,0,0)" stroke="rgb(0,0,0)" stroke-width="1" opacity="1" d="M 30.5 106 L 32 106.5 L 31 109.5 L 31.5 111 L 28 108.5 L 30.5 106 Z " /><path fill="rgb(0,0,0)" stroke="rgb(0,0,0)" stroke-width="1" opacity="1" d="M 43.5 106 L 46 109.5 L 43.5 111 L 44 109.5 L 43.5 106 Z " /><path fill="rgb(0,0,0)" stroke="rgb(0,0,0)" stroke-width="1" opacity="1" d="M 136.5 112 L 145 117.5 L 143.5 118 L 137.5 114 L 136.5 112 Z " /><path fill="rgb(0,0,0)" stroke="rgb(0,0,0)" stroke-width="1" opacity="1" d="M 31.5 115 L 49 115.5 L 31.5 116 L 31.5 115 Z " /><path fill="rgb(0,0,0)" stroke="rgb(0,0,0)" stroke-width="1" opacity="1" d="M 54.5 115 L 80 115.5 L 54.5 116 L 54.5 115 Z " /><path fill="rgb(0,0,0)" stroke="rgb(0,0,0)" stroke-width="1" opacity="1" d="M 134.5 117 L 140 120.5 Q 140.7 126.7 136.5 128 Q 130.3 129.3 129 125.5 Q 128 119 132.5 118 L 134.5 117 Z M 133 119 L 130 125 Q 131 128 136 127 Q 140 127 139 122 Q 138 118 133 119 Z " /><path fill="rgb(0,0,0)" stroke="rgb(0,0,0)" stroke-width="1" opacity="1" d="M 31.5 120 L 57 120.5 L 31.5 121 L 31.5 120 Z " /><path fill="rgb(0,0,0)" stroke="rgb(0,0,0)" stroke-width="1" opacity="1" d="M 62.5 120 L 80 120.5 L 62.5 121 L 62.5 120 Z " /><path fill="rgb(0,0,0)" stroke="rgb(0,0,0)" stroke-width="1" opacity="1" d="M 31 124 L 48.5 124 L 49 126 L 31.5 126 L 31 124 Z " /><path fill="rgb(0,0,0)" stroke="rgb(0,0,0)" stroke-width="1" opacity="1" d="M 55 124 L 79.5 124 L 80 126 L 55.5 126 L 55 124 Z " /><path fill="rgb(0,0,0)" stroke="rgb(0,0,0)" stroke-width="1" opacity="1" d="M 124.5 126 Q 126.8 125.3 126 127.5 L 130 133.5 L 127.5 134 L 119 132 L 122 138.5 L 121 138.5 L 117 132.5 L 117 130 L 127 132 L 124.5 126 Z " /><path fill="rgb(0,0,0)" stroke="rgb(0,0,0)" stroke-width="1" opacity="1" d="M 67.5 128 L 68 129.5 L 67 131.5 L 68 133.5 L 65 131.5 L 67.5 128 Z " /><path fill="rgb(0,0,0)" stroke="rgb(0,0,0)" stroke-width="1" opacity="1" d="M 74.5 128 L 76 128.5 L 73 134 L 71 133.5 L 74.5 128 Z " /><path fill="rgb(0,0,0)" stroke="rgb(0,0,0)" stroke-width="1" opacity="1" d="M 79.5 128 L 82 131.5 L 79 133.5 L 80 130.5 L 79.5 128 Z " /><path fill="rgb(0,0,0)" stroke="rgb(0,0,0)" stroke-width="1" opacity="1" d="M 112.5 132 Q 115.1 131.2 114 134.5 L 117 140.5 L 109.5 143 L 109.5 142 L 115 141 L 113.5 138 L 108.5 139 L 108.5 138 L 113 137 L 112.5 132 Z " /><path fill="rgb(0,0,0)" stroke="rgb(0,0,0)" stroke-width="1" opacity="1" d="M 98.5 135 Q 103 134 104 136.5 L 102.5 136 Q 98 135 97 137.5 L 98.5 140 Q 103.8 138.8 105 141.5 L 102.5 145 L 97 144.5 Q 102.4 145.4 104 142.5 L 95 138.5 L 96.5 136 L 98.5 135 Z " /><path fill="rgb(19,125,94)" stroke="rgb(19,125,94)" stroke-width="1" opacity="1" d="M 27.5 33 L 35.5 33 L 37 34.5 L 36.5 79 L 36 34 L 27.5 34 L 27.5 33 Z " /><path fill="rgb(19,125,94)" stroke="rgb(19,125,94)" stroke-width="1" opacity="1" d="M 59.5 33 L 70 33.5 L 59.5 34 L 58.5 35 L 59.5 33 Z " /><path fill="rgb(19,125,94)" stroke="rgb(19,125,94)" stroke-width="1" opacity="1" d="M 95.5 40 Q 100.3 38.3 99 42.5 L 100.5 42 Q 102.8 41.3 102 43.5 L 105 44.5 L 102 46 L 101.5 49 L 97 43.5 L 98 41 L 95 41.5 L 95.5 43 Q 92.5 41.5 95.5 40 Z " /><path fill="rgb(19,125,94)" stroke="rgb(19,125,94)" stroke-width="1" opacity="1" d="M 96.5 50 L 102 54.5 L 100.5 55 Q 98.8 51.9 97 53.5 L 98 52.5 L 96.5 50 Z " /><path fill="rgb(19,125,94)" stroke="rgb(19,125,94)" stroke-width="1" opacity="1" d="M 97.5 56 L 100 57.5 L 98.5 57 L 97.5 56 Z " /><path fill="rgb(19,125,94)" stroke="rgb(19,125,94)" stroke-width="1" opacity="1" d="M 58.5 59 L 70 59.5 L 58.5 60 L 58.5 59 Z " /><path fill="rgb(19,125,94)" stroke="rgb(19,125,94)" stroke-width="1" opacity="1" d="M 99.5 84 L 98.5 86 L 99.5 84 Z " /><path fill="rgb(19,125,94)" stroke="rgb(19,125,94)" stroke-width="1" opacity="1" d="M 26.5 100 L 85 100.5 L 26.5 101 L 26.5 100 Z " /><path fill="rgb(19,125,94)" stroke="rgb(19,125,94)" stroke-width="1" opacity="1" d="M 30.5 105 L 32 105.5 L 28.5 108 L 30.5 105 Z " /><path fill="rgb(19,125,94)" stroke="rgb(19,125,94)" stroke-width="1" opacity="1" d="M 42.5 107 L 43.5 109 L 42.5 107 Z " /><path fill="rgb(19,125,94)" stroke="rgb(19,125,94)" stroke-width="1" opacity="1" d="M 31.5 109 L 32.5 111 L 31.5 109 Z " /><path fill="rgb(19,125,94)" stroke="rgb(19,125,94)" stroke-width="1" opacity="1" d="M 46.5 109 L 44.5 112 L 46.5 109 Z " /><path fill="rgb(19,125,94)" stroke="rgb(19,125,94)" stroke-width="1" opacity="1" d="M 34.5 111 L 37 112.5 L 35.5 113 L 34.5 111 Z " /><path fill="rgb(19,125,94)" stroke="rgb(19,125,94)" stroke-width="1" opacity="1" d="M 30.5 114 L 50 114.5 L 30.5 115 L 30.5 114 Z " /><path fill="rgb(19,125,94)" stroke="rgb(19,125,94)" stroke-width="1" opacity="1" d="M 54.5 114 L 81 114.5 L 54.5 115 L 54.5 114 Z " /><path fill="rgb(19,125,94)" stroke="rgb(19,125,94)" stroke-width="1" opacity="1" d="M 68.5 129 L 68 130.5 L 69 133.5 L 68 133.5 L 67 130.5 L 68.5 129 Z " /><path fill="rgb(19,125,94)" stroke="rgb(19,125,94)" stroke-width="1" opacity="1" d="M 78.5 129 L 80 131.5 L 78.5 134 L 78 132.5 L 79 130.5 L 78.5 129 Z " /><path fill="rgb(28,188,141)" stroke="rgb(28,188,141)" stroke-width="1" opacity="1" d="M 18.5 15 L 93 15.5 L 18.5 16 L 18.5 15 Z " /><path fill="rgb(28,188,141)" stroke="rgb(28,188,141)" stroke-width="1" opacity="1" d="M 26.5 34 L 27 79 L 37 79.5 L 27.5 80 L 26 78.5 L 26.5 34 Z " /><path fill="rgb(28,188,141)" stroke="rgb(28,188,141)" stroke-width="1" opacity="1" d="M 92.5 37 L 93 41.5 L 92 41.5 L 92.5 37 Z " /><path fill="rgb(28,188,141)" stroke="rgb(28,188,141)" stroke-width="1" opacity="1" d="M 92.5 44 L 93 47.5 L 92 47.5 L 92.5 44 Z " /><path fill="rgb(28,188,141)" stroke="rgb(28,188,141)" stroke-width="1" opacity="1" d="M 92.5 49 L 93 64.5 L 92 64.5 L 92.5 49 Z " /><path fill="rgb(28,188,141)" stroke="rgb(28,188,141)" stroke-width="1" opacity="1" d="M 55.5 67 L 73 67.5 L 55.5 68 L 55.5 67 Z " /><path fill="rgb(28,188,141)" stroke="rgb(28,188,141)" stroke-width="1" opacity="1" d="M 77.5 78 L 78.5 79 L 87.5 79 L 89 78.5 L 88.5 80 L 78.5 80 L 77.5 78 Z " /><path fill="rgb(28,188,141)" stroke="rgb(28,188,141)" stroke-width="1" opacity="1" d="M 40.5 79 L 50 79.5 L 40.5 80 L 40.5 79 Z " /><path fill="rgb(28,188,141)" stroke="rgb(28,188,141)" stroke-width="1" opacity="1" d="M 22.5 91 L 23 138.5 L 22 138.5 L 22.5 91 Z " /><path fill="rgb(28,188,141)" stroke="rgb(28,188,141)" stroke-width="1" opacity="1" d="M 88.5 91 L 89 138.5 L 88 138.5 L 88.5 91 Z " /><path fill="rgb(28,188,141)" stroke="rgb(28,188,141)" stroke-width="1" opacity="1" d="M 25.5 94 L 26 97.5 L 25 97.5 L 25.5 94 Z " /><path fill="rgb(28,188,141)" stroke="rgb(28,188,141)" stroke-width="1" opacity="1" d="M 85.5 94 L 86 99.5 L 85 99.5 L 85.5 94 Z " /><path fill="rgb(28,188,141)" stroke="rgb(28,188,141)" stroke-width="1" opacity="1" d="M 76.5 98 L 75.5 100 L 74 99.5 L 76.5 98 Z " /><path fill="rgb(28,188,141)" stroke="rgb(28,188,141)" stroke-width="1" opacity="1" d="M 79.5 98 L 82 99.5 L 80.5 100 L 79.5 98 Z " /><path fill="rgb(28,188,141)" stroke="rgb(28,188,141)" stroke-width="1" opacity="1" d="M 25.5 103 L 26 133.5 L 25 133.5 L 25.5 103 Z " /><path fill="rgb(28,188,141)" stroke="rgb(28,188,141)" stroke-width="1" opacity="1" d="M 85.5 103 L 86 135.5 L 85 135.5 L 85.5 103 Z " /><path fill="rgb(28,188,141)" stroke="rgb(28,188,141)" stroke-width="1" opacity="1" d="M 44.5 105 L 45.5 107 L 44.5 105 Z " /><path fill="rgb(28,188,141)" stroke="rgb(28,188,141)" stroke-width="1" opacity="1" d="M 32.5 106 L 33 107.5 L 31 108.5 L 32.5 106 Z " /><path fill="rgb(28,188,141)" stroke="rgb(28,188,141)" stroke-width="1" opacity="1" d="M 57.5 119 L 58 121.5 L 57 121.5 L 57.5 119 Z " /><path fill="rgb(28,188,141)" stroke="rgb(28,188,141)" stroke-width="1" opacity="1" d="M 30.5 123 L 50 123.5 L 30.5 124 L 30.5 123 Z " /><path fill="rgb(28,188,141)" stroke="rgb(28,188,141)" stroke-width="1" opacity="1" d="M 54.5 123 L 81 123.5 L 54.5 124 L 54.5 123 Z " /><path fill="rgb(28,188,141)" stroke="rgb(28,188,141)" stroke-width="1" opacity="1" d="M 30.5 126 L 50 126.5 L 30.5 127 L 30.5 126 Z " /><path fill="rgb(28,188,141)" stroke="rgb(28,188,141)" stroke-width="1" opacity="1" d="M 54.5 126 L 81 126.5 L 76 127.5 L 76.5 129 L 74.5 127 L 54.5 127 L 54.5 126 Z " /><path fill="rgb(28,188,141)" stroke="rgb(28,188,141)" stroke-width="1" opacity="1" d="M 71.5 151 L 72.5 152 L 92 152.5 L 68.5 153 L 68.5 152 L 71.5 151 Z " /><path fill="rgb(28,188,141)" stroke="rgb(28,188,141)" stroke-width="1" opacity="1" d="M 18.5 152 L 45 152.5 L 18.5 153 L 18.5 152 Z " /><path fill="rgb(42,13,4)" stroke="rgb(42,13,4)" stroke-width="1" opacity="1" d="M 124.5 15 L 122.5 18 L 124.5 15 Z " /><path fill="rgb(42,13,4)" stroke="rgb(42,13,4)" stroke-width="1" opacity="1" d="M 136.5 21 L 137.5 23 L 136.5 21 Z " /><path fill="rgb(42,13,4)" stroke="rgb(42,13,4)" stroke-width="1" opacity="1" d="M 118.5 22 L 117.5 24 L 118.5 22 Z " /><path fill="rgb(42,13,4)" stroke="rgb(42,13,4)" stroke-width="1" opacity="1" d="M 99.5 26 L 99.5 29 Q 96.5 27.5 99.5 26 Z " /><path fill="rgb(42,13,4)" stroke="rgb(42,13,4)" stroke-width="1" opacity="1" d="M 103.5 26 L 102.5 28 L 103.5 26 Z " /><path fill="rgb(42,13,4)" stroke="rgb(42,13,4)" stroke-width="1" opacity="1" d="M 115.5 27 L 114.5 29 L 115.5 27 Z " /><path fill="rgb(42,13,4)" stroke="rgb(42,13,4)" stroke-width="1" opacity="1" d="M 96.5 30 L 98.5 31 L 100.5 30 L 100.5 31 L 95.5 34 L 95 31.5 L 96.5 30 Z " /><path fill="rgb(42,13,4)" stroke="rgb(42,13,4)" stroke-width="1" opacity="1" d="M 114.5 32 L 115.5 34 L 114.5 32 Z " /><path fill="rgb(42,13,4)" stroke="rgb(42,13,4)" stroke-width="1" opacity="1" d="M 111.5 33 Q 115 35 110.5 37 L 111.5 33 Z " /><path fill="rgb(42,13,4)" stroke="rgb(42,13,4)" stroke-width="1" opacity="1" d="M 94.5 36 L 99 36.5 L 94.5 37 L 94.5 36 Z " /><path fill="rgb(42,13,4)" stroke="rgb(42,13,4)" stroke-width="1" opacity="1" d="M 114.5 36 L 113.5 38 L 114.5 36 Z " /><path fill="rgb(42,13,4)" stroke="rgb(42,13,4)" stroke-width="1" opacity="1" d="M 132.5 37 L 136.5 42 L 131 38.5 L 132.5 37 Z " /><path fill="rgb(42,13,4)" stroke="rgb(42,13,4)" stroke-width="1" opacity="1" d="M 155.5 40 L 156.5 42 L 155.5 40 Z " /><path fill="rgb(42,13,4)" stroke="rgb(42,13,4)" stroke-width="1" opacity="1" d="M 123.5 41 L 122.5 43 L 123.5 41 Z " /><path fill="rgb(42,13,4)" stroke="rgb(42,13,4)" stroke-width="1" opacity="1" d="M 134.5 42 L 131.5 46 Q 130.3 43.8 129 46.5 L 128.5 48 L 128 46.5 L 134.5 42 Z " /><path fill="rgb(42,13,4)" stroke="rgb(42,13,4)" stroke-width="1" opacity="1" d="M 157.5 43 L 158.5 45 L 157.5 43 Z " /><path fill="rgb(42,13,4)" stroke="rgb(42,13,4)" stroke-width="1" opacity="1" d="M 126.5 49 L 128.5 52 L 126.5 49 Z " /><path fill="rgb(42,13,4)" stroke="rgb(42,13,4)" stroke-width="1" opacity="1" d="M 162.5 52 L 159.5 56 L 162.5 52 Z " /><path fill="rgb(42,13,4)" stroke="rgb(42,13,4)" stroke-width="1" opacity="1" d="M 143.5 53 L 143 54.5 L 141.5 57 L 142 55.5 L 143.5 53 Z " /><path fill="rgb(42,13,4)" stroke="rgb(42,13,4)" stroke-width="1" opacity="1" d="M 138.5 57 L 137.5 59 L 138.5 57 Z " /><path fill="rgb(42,13,4)" stroke="rgb(42,13,4)" stroke-width="1" opacity="1" d="M 143.5 58 L 143 59.5 L 142.5 61 L 142 59.5 L 143.5 58 Z " /><path fill="rgb(42,13,4)" stroke="rgb(42,13,4)" stroke-width="1" opacity="1" d="M 139.5 59 L 138.5 61 L 139.5 59 Z " /><path fill="rgb(42,13,4)" stroke="rgb(42,13,4)" stroke-width="1" opacity="1" d="M 142.5 66 L 144 69.5 L 142 70.5 L 143 68.5 L 142.5 66 Z " /><path fill="rgb(42,13,4)" stroke="rgb(42,13,4)" stroke-width="1" opacity="1" d="M 152.5 68 L 153 69.5 L 152.5 72 Q 149.8 70.7 152 69.5 L 152.5 68 Z " /><path fill="rgb(42,13,4)" stroke="rgb(42,13,4)" stroke-width="1" opacity="1" d="M 150.5 72 Q 153.5 73.5 150.5 75 L 150.5 72 Z " /><path fill="rgb(42,13,4)" stroke="rgb(42,13,4)" stroke-width="1" opacity="1" d="M 146.5 73 L 149 73.5 L 146.5 74 L 146.5 73 Z " /><path fill="rgb(42,13,4)" stroke="rgb(42,13,4)" stroke-width="1" opacity="1" d="M 147.5 78 Q 153.5 76.5 155 79.5 L 153.5 79 L 147.5 79 L 147.5 78 Z " /><path fill="rgb(42,13,4)" stroke="rgb(42,13,4)" stroke-width="1" opacity="1" d="M 144.5 79 L 145 83.5 L 144 83.5 L 144.5 79 Z " /><path fill="rgb(42,13,4)" stroke="rgb(42,13,4)" stroke-width="1" opacity="1" d="M 169.5 79 L 170 88.5 L 169 88.5 L 169.5 79 Z " /><path fill="rgb(42,13,4)" stroke="rgb(42,13,4)" stroke-width="1" opacity="1" d="M 154.5 90 L 153.5 92 L 154.5 90 Z " /><path fill="rgb(42,13,4)" stroke="rgb(42,13,4)" stroke-width="1" opacity="1" d="M 142.5 102 L 143 104.5 L 141.5 106 Q 138 104 142.5 102 Z " /><path fill="rgb(42,13,4)" stroke="rgb(42,13,4)" stroke-width="1" opacity="1" d="M 147.5 102 L 149.5 105 L 147.5 102 Z " /><path fill="rgb(42,13,4)" stroke="rgb(42,13,4)" stroke-width="1" opacity="1" d="M 147.5 110 Q 150.5 111.5 147.5 113 Q 144.5 111.5 147.5 110 Z " /><path fill="rgb(42,13,4)" stroke="rgb(42,13,4)" stroke-width="1" opacity="1" d="M 132.5 111 L 131.5 113 L 132.5 111 Z " /><path fill="rgb(42,13,4)" stroke="rgb(42,13,4)" stroke-width="1" opacity="1" d="M 160.5 113 L 162.5 116 L 160.5 113 Z " /><path fill="rgb(42,13,4)" stroke="rgb(42,13,4)" stroke-width="1" opacity="1" d="M 128.5 116 L 126.5 119 L 128.5 116 Z " /><path fill="rgb(42,13,4)" stroke="rgb(42,13,4)" stroke-width="1" opacity="1" d="M 131.5 118 Q 134.5 119.5 131.5 121 Q 128.5 119.5 131.5 118 Z " /><path fill="rgb(42,13,4)" stroke="rgb(42,13,4)" stroke-width="1" opacity="1" d="M 138.5 118 L 139.5 120 L 138.5 118 Z " /><path fill="rgb(42,13,4)" stroke="rgb(42,13,4)" stroke-width="1" opacity="1" d="M 138.5 121 L 140 124.5 L 138 123.5 L 138.5 121 Z " /><path fill="rgb(42,13,4)" stroke="rgb(42,13,4)" stroke-width="1" opacity="1" d="M 158.5 123 L 157.5 125 L 158.5 123 Z " /><path fill="rgb(42,13,4)" stroke="rgb(42,13,4)" stroke-width="1" opacity="1" d="M 129.5 126 L 130.5 128 L 129.5 126 Z " /><path fill="rgb(42,13,4)" stroke="rgb(42,13,4)" stroke-width="1" opacity="1" d="M 156.5 126 L 155.5 128 L 156.5 126 Z " /><path fill="rgb(42,13,4)" stroke="rgb(42,13,4)" stroke-width="1" opacity="1" d="M 132.5 128 L 135 128.5 L 132.5 129 L 132.5 128 Z " /><path fill="rgb(42,13,4)" stroke="rgb(42,13,4)" stroke-width="1" opacity="1" d="M 123.5 131 L 122.5 133 L 121 132.5 L 123.5 131 Z " /><path fill="rgb(42,13,4)" stroke="rgb(42,13,4)" stroke-width="1" opacity="1" d="M 111.5 132 L 112.5 134 Q 109.7 134.7 111.5 132 Z " /><path fill="rgb(42,13,4)" stroke="rgb(42,13,4)" stroke-width="1" opacity="1" d="M 108.5 133 L 109.5 135 Q 106.7 135.7 108.5 133 Z " /><path fill="rgb(42,13,4)" stroke="rgb(42,13,4)" stroke-width="1" opacity="1" d="M 119.5 133 L 120.5 135 L 118 134.5 L 119.5 133 Z " /><path fill="rgb(42,13,4)" stroke="rgb(42,13,4)" stroke-width="1" opacity="1" d="M 97.5 135 L 100 136.5 L 98.5 137 L 97.5 135 Z " /><path fill="rgb(42,13,4)" stroke="rgb(42,13,4)" stroke-width="1" opacity="1" d="M 103.5 135 L 102.5 137 L 103.5 135 Z " /><path fill="rgb(42,13,4)" stroke="rgb(42,13,4)" stroke-width="1" opacity="1" d="M 119.5 136 L 122 136.5 Q 119.9 139.8 119.5 136 Z " /><path fill="rgb(42,13,4)" stroke="rgb(42,13,4)" stroke-width="1" opacity="1" d="M 110.5 137 L 111.5 139 L 110.5 137 Z " /><path fill="rgb(42,13,4)" stroke="rgb(42,13,4)" stroke-width="1" opacity="1" d="M 95.5 139 L 97.5 140 L 102.5 139 L 102.5 140 L 96.5 141 L 95.5 139 Z " /><path fill="rgb(42,13,4)" stroke="rgb(42,13,4)" stroke-width="1" opacity="1" d="M 114.5 139 L 116 141.5 L 114 140.5 L 114.5 139 Z " /><path fill="rgb(42,13,4)" stroke="rgb(42,13,4)" stroke-width="1" opacity="1" d="M 111.5 141 L 112.5 143 L 111.5 141 Z " /><path fill="rgb(42,13,4)" stroke="rgb(42,13,4)" stroke-width="1" opacity="1" d="M 103.5 142 Q 106.5 143.5 103.5 145 Q 100.5 143.5 103.5 142 Z " /><path fill="rgb(42,13,4)" stroke="rgb(42,13,4)" stroke-width="1" opacity="1" d="M 137.5 145 L 136.5 147 L 137.5 145 Z " /><path fill="rgb(42,13,4)" stroke="rgb(42,13,4)" stroke-width="1" opacity="1" d="M 122.5 150 L 124.5 153 L 122.5 150 Z " /><path fill="rgb(26,41,31)" stroke="rgb(26,41,31)" stroke-width="1" opacity="1" d="M 17.5 15 L 18 152.5 L 17 152.5 L 17.5 15 Z " /><path fill="rgb(26,41,31)" stroke="rgb(26,41,31)" stroke-width="1" opacity="1" d="M 103.5 37 L 104.5 39 L 103.5 37 Z " /><path fill="rgb(26,41,31)" stroke="rgb(26,41,31)" stroke-width="1" opacity="1" d="M 96.5 38 L 102 38.5 L 96.5 39 L 96.5 38 Z " /><path fill="rgb(26,41,31)" stroke="rgb(26,41,31)" stroke-width="1" opacity="1" d="M 101.5 41 L 102.5 43 L 101.5 41 Z " /><path fill="rgb(26,41,31)" stroke="rgb(26,41,31)" stroke-width="1" opacity="1" d="M 93.5 42 L 94.5 44 L 96 43.5 Q 94.5 46.5 93 43.5 L 93.5 42 Z " /><path fill="rgb(26,41,31)" stroke="rgb(26,41,31)" stroke-width="1" opacity="1" d="M 108.5 47 L 110 47.5 L 107.5 49 L 108.5 47 Z " /><path fill="rgb(26,41,31)" stroke="rgb(26,41,31)" stroke-width="1" opacity="1" d="M 93.5 48 L 96 48.5 Q 96.8 50.8 94.5 50 L 93.5 48 Z " /><path fill="rgb(26,41,31)" stroke="rgb(26,41,31)" stroke-width="1" opacity="1" d="M 100.5 48 L 101.5 50 L 100.5 48 Z " /><path fill="rgb(26,41,31)" stroke="rgb(26,41,31)" stroke-width="1" opacity="1" d="M 101.5 53 L 102.5 55 L 101.5 53 Z " /><path fill="rgb(26,41,31)" stroke="rgb(26,41,31)" stroke-width="1" opacity="1" d="M 130.5 54 L 132.5 57 L 130.5 54 Z " /><path fill="rgb(26,41,31)" stroke="rgb(26,41,31)" stroke-width="1" opacity="1" d="M 102.5 56 L 101.5 58 L 102.5 56 Z " /><path fill="rgb(26,41,31)" stroke="rgb(26,41,31)" stroke-width="1" opacity="1" d="M 93.5 65 L 94 72.5 L 93 72.5 L 93.5 65 Z " /><path fill="rgb(26,41,31)" stroke="rgb(26,41,31)" stroke-width="1" opacity="1" d="M 128.5 66 L 130.5 69 L 128.5 66 Z " /><path fill="rgb(26,41,31)" stroke="rgb(26,41,31)" stroke-width="1" opacity="1" d="M 135.5 66 L 136 68 L 134 67.5 L 135.5 66 Z " /><path fill="rgb(26,41,31)" stroke="rgb(26,41,31)" stroke-width="1" opacity="1" d="M 138.5 70 L 139.5 72 Q 136.7 72.7 138.5 70 Z " /><path fill="rgb(26,41,31)" stroke="rgb(26,41,31)" stroke-width="1" opacity="1" d="M 95.5 73 L 94 75.5 L 93.5 84 L 93 74 L 95.5 73 Z " /><path fill="rgb(26,41,31)" stroke="rgb(26,41,31)" stroke-width="1" opacity="1" d="M 98.5 82 L 97.5 84 L 98.5 82 Z " /><path fill="rgb(26,41,31)" stroke="rgb(26,41,31)" stroke-width="1" opacity="1" d="M 95.5 84 L 97 87.5 L 96 87.5 L 95.5 84 Z " /><path fill="rgb(26,41,31)" stroke="rgb(26,41,31)" stroke-width="1" opacity="1" d="M 93.5 85 L 95 90.5 L 93.5 93 L 93 91.5 L 93 89.5 L 93.5 85 Z " /><path fill="rgb(26,41,31)" stroke="rgb(26,41,31)" stroke-width="1" opacity="1" d="M 134.5 86 L 135.5 88 L 134.5 86 Z " /><path fill="rgb(26,41,31)" stroke="rgb(26,41,31)" stroke-width="1" opacity="1" d="M 25.5 93 L 86 93.5 L 25.5 94 L 25.5 93 Z " /><path fill="rgb(26,41,31)" stroke="rgb(26,41,31)" stroke-width="1" opacity="1" d="M 74.5 96 L 76 96.5 L 73.5 98 L 74.5 96 Z " /><path fill="rgb(26,41,31)" stroke="rgb(26,41,31)" stroke-width="1" opacity="1" d="M 80.5 96 L 83 97.5 L 81.5 97 L 80.5 96 Z " /><path fill="rgb(26,41,31)" stroke="rgb(26,41,31)" stroke-width="1" opacity="1" d="M 34.5 97 L 36.5 98 L 38 97.5 L 35.5 99 L 34.5 97 Z " /><path fill="rgb(26,41,31)" stroke="rgb(26,41,31)" stroke-width="1" opacity="1" d="M 93.5 97 L 94 128.5 L 93 128.5 L 93.5 97 Z " /><path fill="rgb(26,41,31)" stroke="rgb(26,41,31)" stroke-width="1" opacity="1" d="M 25.5 102 L 86 102.5 L 25.5 103 L 25.5 102 Z " /><path fill="rgb(26,41,31)" stroke="rgb(26,41,31)" stroke-width="1" opacity="1" d="M 99.5 103 L 100.5 105 L 99.5 103 Z " /><path fill="rgb(26,41,31)" stroke="rgb(26,41,31)" stroke-width="1" opacity="1" d="M 134.5 105 L 135.5 107 Q 132.7 107.7 134.5 105 Z " /><path fill="rgb(26,41,31)" stroke="rgb(26,41,31)" stroke-width="1" opacity="1" d="M 44.5 106 L 46.5 109 L 44.5 106 Z " /><path fill="rgb(26,41,31)" stroke="rgb(26,41,31)" stroke-width="1" opacity="1" d="M 28.5 109 L 30.5 112 L 28.5 109 Z " /><path fill="rgb(26,41,31)" stroke="rgb(26,41,31)" stroke-width="1" opacity="1" d="M 49.5 115 L 48.5 117 L 31 116.5 L 48.5 116 L 49.5 115 Z " /><path fill="rgb(26,41,31)" stroke="rgb(26,41,31)" stroke-width="1" opacity="1" d="M 80.5 115 L 79.5 117 L 55 116.5 L 79.5 116 L 80.5 115 Z " /><path fill="rgb(26,41,31)" stroke="rgb(26,41,31)" stroke-width="1" opacity="1" d="M 108.5 116 L 107.5 118 L 108.5 116 Z " /><path fill="rgb(26,41,31)" stroke="rgb(26,41,31)" stroke-width="1" opacity="1" d="M 31.5 119 L 57 119.5 L 31.5 120 L 31.5 119 Z " /><path fill="rgb(26,41,31)" stroke="rgb(26,41,31)" stroke-width="1" opacity="1" d="M 62.5 119 L 79.5 119 L 81 120.5 L 79.5 120 L 62.5 120 L 62.5 119 Z " /><path fill="rgb(26,41,31)" stroke="rgb(26,41,31)" stroke-width="1" opacity="1" d="M 105.5 122 L 106.5 124 L 104 123.5 L 105.5 122 Z " /><path fill="rgb(26,41,31)" stroke="rgb(26,41,31)" stroke-width="1" opacity="1" d="M 66.5 128 L 65 130.5 L 67 133.5 L 64 131.5 L 66.5 128 Z " /><path fill="rgb(26,41,31)" stroke="rgb(26,41,31)" stroke-width="1" opacity="1" d="M 80.5 128 L 83 131.5 L 80 133.5 L 82 130.5 L 80.5 128 Z " /><path fill="rgb(26,41,31)" stroke="rgb(26,41,31)" stroke-width="1" opacity="1" d="M 93.5 131 L 98 131.5 L 93.5 132 L 93.5 131 Z " /><path fill="rgb(26,41,31)" stroke="rgb(26,41,31)" stroke-width="1" opacity="1" d="M 65.5 138 L 66.5 140 L 65.5 138 Z " /><path fill="rgb(31,201,150)" stroke="rgb(31,201,150)" stroke-width="1" opacity="1" d="M 92.5 16 L 93 18.5 L 93 36.5 L 91.5 38 L 91 36.5 L 92 35.5 L 92 18 L 21 18 L 21 89.5 L 22.5 89 L 88.5 89 L 89.5 90 L 91.5 85 Q 94.3 86.3 92 87.5 L 93 89.5 L 93 91.5 L 92.5 93 L 91 92.5 L 91.5 95 L 93 94.5 L 92 96.5 L 92 98.5 L 92 126.5 L 93 127.5 Q 89 129.5 93 131.5 L 93 149.5 L 92 150.5 L 92.5 152 L 91.5 151 L 81 150.5 L 85 150 L 85.5 148 Q 87.3 150.8 89 146.5 L 88 144 L 80.5 142 L 79 142.5 L 79.5 141 L 76 140.5 L 88.5 140 L 90 138.5 L 90 91.5 L 88.5 90 L 22.5 90 L 21 91.5 L 21 138.5 L 22.5 140 L 41 140.5 L 40 142.5 L 42 148 L 44 148.5 L 43 151 L 18 150.5 L 20 150 L 20 18.5 L 18.5 18 L 18.5 17 L 91.5 17 L 92.5 16 Z M 92 133 L 91 139 L 91 141 L 90 140 L 86 142 Q 87 144 89 142 L 90 146 L 89 149 L 92 150 L 92 133 Z M 22 140 L 21 150 L 42 150 L 41 149 Q 42 147 39 146 L 40 145 L 38 143 L 39 142 L 23 141 L 22 140 Z " /><path fill="rgb(31,201,150)" stroke="rgb(31,201,150)" stroke-width="1" opacity="1" d="M 24.5 31 L 26.5 31 L 36.5 31 L 37.5 32 L 39 31.5 L 39 33.5 L 39.5 72 L 40.5 69 L 42 68.5 L 41.5 67 L 43 66.5 L 42 65.5 Q 45.1 63.8 43.5 62 L 45 61.5 L 44 60.5 Q 47.1 58.8 45.5 57 L 47 56.5 L 46 55.5 Q 49.1 53.8 47.5 52 L 49 51.5 L 48.5 50 L 50 49.5 L 49 48.5 Q 52.1 46.8 50.5 45 L 52 44.5 L 51 43.5 Q 54.1 41.8 52.5 40 L 54 39.5 L 53.5 38 L 55 37.5 L 54 36.5 Q 57.1 34.8 55.5 33 L 57 32.5 L 56.5 31 L 58.5 31 L 70.5 31 L 71.5 32 L 73 31.5 L 72.5 33 L 74 33.5 L 73 34.5 Q 76.1 36.3 74.5 38 L 76 38.5 L 75 39.5 Q 78.1 41.3 76.5 43 L 78 43.5 L 77 44.5 Q 80.1 46.3 78.5 48 L 80 48.5 L 79 49.5 Q 82.1 51.3 80.5 53 L 82 53.5 L 81 54.5 Q 84.1 56.3 82.5 58 L 84 58.5 L 83 59.5 Q 86.1 61.3 84.5 63 L 86 63.5 L 85.5 65 L 87 65.5 L 86 66.5 Q 89.1 68.3 87.5 70 L 89 70.5 L 88 71.5 Q 91.1 73.3 89.5 75 L 92.5 74 L 92 77.5 L 93 81.5 L 92.5 84 L 89.5 81 L 88.5 82 L 77.5 82 Q 78.1 79.3 75 80 L 75 77 L 73.5 77 Q 75.1 75.3 72 73.5 L 73 72.5 L 70.5 70 L 56 70.5 L 57 71.5 L 55 73.5 L 56 74.5 Q 52.9 76.3 54.5 78 L 53 78.5 L 53.5 80 L 52 80.5 L 52.5 82 L 50.5 82 L 40.5 82 L 39.5 81 L 36.5 82 L 26.5 82 L 25.5 81 L 24 81.5 L 24 79.5 L 24 33.5 L 25 32.5 L 24.5 31 Z M 27 32 L 27 34 L 26 33 L 25 80 L 27 79 L 26 81 L 37 81 L 38 80 L 38 34 L 37 32 L 27 32 Z M 59 32 L 59 34 L 58 33 L 53 44 L 54 46 L 52 46 L 51 49 L 52 51 L 50 51 L 44 66 L 45 68 L 43 68 L 39 80 L 41 81 L 51 81 L 50 80 L 52 80 L 53 77 L 52 75 L 54 74 L 55 72 L 54 70 L 73 69 L 74 68 L 73 70 L 75 75 Q 74 77 77 76 L 76 78 Q 75 80 78 79 L 78 81 L 89 81 L 90 80 L 82 61 Q 83 58 81 59 L 81 58 L 80 56 Q 81 53 79 54 L 79 53 L 78 51 Q 79 48 77 49 L 77 48 L 76 46 Q 77 43 75 44 L 75 43 L 72 36 Q 73 33 71 34 L 71 33 L 59 32 Z " /><path fill="rgb(31,201,150)" stroke="rgb(31,201,150)" stroke-width="1" opacity="1" d="M 91 42 L 93 42.5 L 91 43.5 L 91 42 Z " /><path fill="rgb(31,201,150)" stroke="rgb(31,201,150)" stroke-width="1" opacity="1" d="M 63.5 46 L 65 50 L 67 50.5 L 66 52.5 L 67 55 L 69 55.5 L 68 58 L 60.5 58 L 60 56.5 L 62 52.5 L 61.5 51 Q 63.8 51.8 63 49.5 L 64 47.5 L 63.5 46 Z M 65 53 Q 60 55 64 57 L 67 57 L 66 56 L 65 53 Z " /><path fill="rgb(31,201,150)" stroke="rgb(31,201,150)" stroke-width="1" opacity="1" d="M 92.5 65 L 93 67.5 L 92 69.5 L 93 71.5 L 91 72.5 L 92 70.5 L 91 66.5 L 92.5 65 Z " /><path fill="rgb(31,201,150)" stroke="rgb(31,201,150)" stroke-width="1" opacity="1" d="M 44.5 95 L 67 95.5 Q 63.9 97.3 65.5 99 L 44 98.5 L 45 96.5 L 44.5 95 Z M 46 96 L 47 98 L 64 98 L 64 96 L 46 96 Z " /><path fill="rgb(31,201,150)" stroke="rgb(31,201,150)" stroke-width="1" opacity="1" d="M 70.5 95 L 73 95.5 L 72 99 L 70 98.5 L 71 96.5 L 70.5 95 Z " /><path fill="rgb(31,201,150)" stroke="rgb(31,201,150)" stroke-width="1" opacity="1" d="M 77 95 Q 80 94 79 97 Q 76 98 77 95 Z " /><path fill="rgb(31,201,150)" stroke="rgb(31,201,150)" stroke-width="1" opacity="1" d="M 27.5 103 L 28.5 105 L 31.5 103 L 34.5 105 L 36 104.5 L 35 107.5 L 35.5 109 L 34 108.5 L 33.5 110 L 33 108.5 L 34 106.5 L 30.5 104 L 27 106.5 L 27.5 103 Z " /><path fill="rgb(31,201,150)" stroke="rgb(31,201,150)" stroke-width="1" opacity="1" d="M 83.5 103 L 84 129 Q 80 130.4 82 123.5 L 82 121.5 L 81 117.5 L 82 114.5 L 80.5 113 L 54.5 113 L 53 116.5 L 53.5 118 L 50 117.5 L 51 114.5 Q 49.6 111.9 45 112.5 L 48 109.5 L 46 107.5 L 47 106.5 L 45.5 104 L 46.5 105 L 83 105 L 83.5 103 Z M 51 106 Q 48 107 50 109 L 49 111 L 50 113 L 52 112 L 54 113 L 55 112 L 81 112 Q 82 114 83 112 Q 84 106 83 106 L 51 106 Z " /><path fill="rgb(31,201,150)" stroke="rgb(31,201,150)" stroke-width="1" opacity="1" d="M 40 108 Q 42.7 106.9 42 109.5 L 41 111.5 L 41.5 113 L 38 112.5 L 40 108 Z " /><path fill="rgb(31,201,150)" stroke="rgb(31,201,150)" stroke-width="1" opacity="1" d="M 27 111 Q 29.7 109.9 29 112.5 L 29 114.5 L 30 118.5 L 29 121.5 L 29 123.5 Q 28.3 127.3 30.5 128 L 49.5 128 L 51 126.5 L 50 123.5 L 53.5 123 L 53 124.5 L 54.5 128 L 65 128.5 L 63 129.5 L 63 131.5 L 63.5 133 Q 64.8 130.8 66 133.5 L 64.5 135 L 56.5 135 L 53.5 134 L 52 134.5 L 52.5 133 L 38.5 130 Q 36 131.2 37 135 L 27 135 L 27 111 Z M 30 128 L 28 130 L 28 134 L 36 134 L 37 131 L 36 129 Q 31 130 30 128 Z M 51 128 L 45 130 L 52 131 Q 53 134 55 132 L 61 134 Q 63 133 61 132 L 62 130 L 55 129 L 53 129 L 51 128 Z " /><path fill="rgb(31,201,150)" stroke="rgb(31,201,150)" stroke-width="1" opacity="1" d="M 32.5 111 L 33.5 113 L 32.5 111 Z " /><path fill="rgb(31,201,150)" stroke="rgb(31,201,150)" stroke-width="1" opacity="1" d="M 57.5 118 L 61 118.5 L 60 122 L 58 121.5 L 59 119 L 57.5 118 Z " /><path fill="rgb(31,201,150)" stroke="rgb(31,201,150)" stroke-width="1" opacity="1" d="M 69.5 128 L 72 128.5 L 69.5 132 L 69 130.5 L 69.5 128 Z " /><path fill="rgb(31,201,150)" stroke="rgb(31,201,150)" stroke-width="1" opacity="1" d="M 77.5 130 L 78 131.5 L 77 133.5 L 77.5 135 L 73 134.5 L 75 133.5 L 74.5 132 L 77.5 130 Z " /><path fill="rgb(31,201,150)" stroke="rgb(31,201,150)" stroke-width="1" opacity="1" d="M 82.5 132 L 84 135 L 81 133.5 L 82.5 132 Z " /><path fill="rgb(17,139,181)" stroke="rgb(17,139,181)" stroke-width="1" opacity="1" d="M 102.5 43 L 103.5 45 L 102.5 43 Z " /><path fill="rgb(17,139,181)" stroke="rgb(17,139,181)" stroke-width="1" opacity="1" d="M 102.5 46 L 104 49.5 L 102 48.5 L 102.5 46 Z " /><path fill="rgb(17,139,181)" stroke="rgb(17,139,181)" stroke-width="1" opacity="1" d="M 129.5 55 L 131 57.5 L 129 56.5 L 129.5 55 Z " /><path fill="rgb(17,139,181)" stroke="rgb(17,139,181)" stroke-width="1" opacity="1" d="M 132.5 58 L 137 65.5 L 135.5 66 L 133.5 65 Q 130.5 66.5 133.5 68 L 138 67 L 139 69.5 L 137.5 69 L 136 69.5 L 137 72 L 139 72.5 L 138.5 74 Q 141.1 73.2 140 76.5 L 139 80.5 L 141 80.5 L 140.5 90 L 139.5 87 L 139 92.5 L 140 95.5 L 139 95.5 Q 139.8 93.3 137.5 94 L 138 92.5 Q 139.9 87.1 136.5 88 L 133.5 86 L 128 87 L 126 83.5 L 126 76.5 L 128 72 Q 130.7 73.1 130 70.5 L 131 68.5 Q 128 67.3 129 63 Q 132.8 64.5 132 61.5 L 131 59.5 L 132.5 58 Z " /><path fill="rgb(17,139,181)" stroke="rgb(17,139,181)" stroke-width="1" opacity="1" d="M 100.5 82 L 106.5 84 L 107.5 83 L 111.5 87 Q 115.5 86.5 116 89.5 Q 114.8 93.3 118.5 92 L 125 95 L 124 99.5 L 118.5 107 Q 116.3 106.3 117 108.5 L 114 110 L 111.5 114 L 108 115 L 106.5 118 L 103 120.5 L 101.5 125 L 100.5 123 L 99 123.5 L 102 105.5 Q 96 101.5 94 93.5 L 98.5 83 L 100.5 82 Z " /><path fill="rgb(17,139,181)" stroke="rgb(17,139,181)" stroke-width="1" opacity="1" d="M 136.5 96 L 139 101.5 L 135 104.5 L 135.5 102 Q 136.7 104.3 138 101.5 L 136.5 96 Z " /><path fill="rgb(17,139,181)" stroke="rgb(17,139,181)" stroke-width="1" opacity="1" d="M 100.5 128 Q 108.1 126.5 107 130 L 100.5 129 L 100.5 128 Z " /><path fill="rgb(17,139,181)" stroke="rgb(17,139,181)" stroke-width="1" opacity="1" d="M 96.5 129 L 101 130.5 L 95.5 131 L 96.5 129 Z " /><path fill="rgb(17,139,181)" stroke="rgb(17,139,181)" stroke-width="1" opacity="1" d="M 77.5 145 L 78.5 147 L 77.5 145 Z " /><path fill="rgb(254,88,34)" stroke="rgb(254,88,34)" stroke-width="1" opacity="1" d="M 87 9 L 99.5 9 L 100 10.5 L 102 21 L 118 25 L 125.5 16 L 137 22.5 L 133 35 L 134.5 35 L 143.5 44 L 146.5 44 L 154.5 41 Q 159.6 44.9 161 52.5 L 153 59 L 156 75 L 168 77 L 169 86.5 L 168 91 L 156 93 L 153 109 L 161 115.5 Q 159.6 123 154.5 127 L 143.5 124 L 134.5 133 L 132 133.5 L 137 145.5 L 125.5 152 L 118 143 L 102 147 L 100 159 L 87.5 159 L 87 157.5 L 86 154 L 94 154 L 94 144.5 L 94 142.5 L 94.5 140 Q 97 143 103 142.5 L 96.5 143 L 95 144.5 Q 96.5 147.5 102.5 146 L 105 145 L 106 141.5 L 105 139 L 98.5 139 L 98 137 L 105 138 Q 103.7 134.7 108.5 136 L 111.5 134 L 112 136 L 107 137 Q 105.3 141.5 110.5 140 L 113.5 139 L 113.5 140 L 108 142.5 Q 107.1 145.5 111.5 144 L 118 142 L 115 132.5 L 117 133.5 L 120 140 L 123 138.5 Q 123.5 134 120 133.5 L 121.5 133 L 129.5 135 L 131 132.5 L 126 124 L 123 125.5 L 126 130.5 L 123.5 131 L 116.5 129 L 114.5 131 L 105 133 L 104.5 135 Q 103.3 132.8 98.5 134 L 94.5 137 L 94 133.5 L 95.5 132 L 103.5 132 L 115.5 128 L 133 112.5 L 138.5 102 L 140 102.5 L 139 100.5 L 141 100.5 L 142 76.5 L 138 63.5 L 134 57.5 L 135 55.5 L 133.5 56 L 121.5 44 L 112.5 39 L 103.5 36 L 95.5 36 L 94 34.5 L 98.5 32 L 104 33 L 105.5 36 L 117 39 Q 115.9 41.7 118.5 41 L 126 44 L 124.5 41 L 121 38.5 L 125 31.5 L 122 30 L 117.5 38 L 117 36 L 113 35.5 L 119 31.5 Q 119.5 27.5 116.5 27 L 110 26 Q 108.2 30.9 114.5 29 Q 117.5 30.5 114.5 32 L 107 34 L 104 24 L 101.5 23 L 94.5 32 L 94 30.5 L 94 28.5 L 94 14 L 86 14 L 86 11.5 L 87 9 Z M 112 30 L 112 31 L 114 31 L 112 30 Z M 101 34 L 101 35 L 103 35 L 101 34 Z M 130 36 L 130 39 L 133 41 L 127 48 L 130 49 L 136 43 L 139 46 L 140 44 L 133 36 L 130 36 Z M 143 51 L 140 52 Q 139 57 142 60 L 140 60 L 139 58 Q 141 52 136 54 Q 135 59 138 62 L 142 64 L 145 62 Q 146 57 143 56 L 144 54 L 146 58 Q 145 62 149 60 L 148 55 Q 147 50 143 51 Z M 145 63 L 141 68 Q 141 74 146 76 L 152 75 L 154 71 L 153 67 Q 152 62 145 63 Z M 154 77 L 153 78 L 144 78 L 144 88 L 147 87 L 147 81 L 155 81 L 155 77 L 154 77 Z M 147 88 L 144 89 Q 142 91 143 98 L 146 100 L 151 101 Q 156 103 154 98 L 148 97 L 146 96 Q 145 92 148 91 L 150 92 Q 157 94 155 89 L 147 88 Z M 144 101 L 142 102 L 138 108 Q 137 113 141 111 L 144 105 Q 147 104 148 107 L 145 113 L 148 114 L 151 109 L 150 104 Q 149 100 144 101 Z M 137 111 L 135 114 L 145 119 L 146 116 L 137 111 Z M 135 116 L 130 118 L 128 122 L 128 126 Q 129 130 137 129 L 141 124 L 140 119 L 135 116 Z " /><path fill="rgb(254,88,34)" stroke="rgb(254,88,34)" stroke-width="1" opacity="1" d="M 101.5 27 L 103 29.5 L 100.5 30 L 101 28.5 L 101.5 27 Z " /><path fill="rgb(254,88,34)" stroke="rgb(254,88,34)" stroke-width="1" opacity="1" d="M 146.5 66 L 150 67.5 L 151 70.5 Q 150.5 73.5 146.5 73 L 144 68.5 L 146.5 66 Z " /><path fill="rgb(254,88,34)" stroke="rgb(254,88,34)" stroke-width="1" opacity="1" d="M 133.5 120 Q 137.3 119.3 138 121.5 Q 138.5 125.5 135.5 126 Q 131.8 126.8 131 124.5 Q 130.5 120.5 133.5 120 Z " /><path fill="rgb(32,201,151)" stroke="rgb(32,201,151)" stroke-width="1" opacity="1" d="M 18 18 L 20 18.5 L 20 150 L 18 149.5 L 18 18 Z " /><path fill="rgb(32,201,151)" stroke="rgb(32,201,151)" stroke-width="1" opacity="1" d="M 21 18 L 91.5 18 L 92 18.5 L 92 35.5 L 91 37.5 L 92 41.5 L 91 43.5 L 93 43.5 L 92 44.5 L 92 65.5 L 92.5 67 L 91 66.5 L 91.5 70 L 93 69.5 L 91 72.5 L 93 72.5 L 89.5 75 L 88.5 70 L 87 69.5 L 88 68.5 Q 84.9 66.8 86.5 65 L 85 64.5 L 85.5 63 L 84 62.5 L 85 61.5 Q 81.9 59.7 83.5 58 L 82 57.5 L 83 56.5 Q 79.9 54.8 81.5 53 L 80 52.5 L 81 51.5 Q 77.9 49.8 79.5 48 L 78 47.5 L 79 46.5 Q 75.9 44.7 77.5 43 L 76 42.5 L 77 41.5 Q 73.9 39.8 75.5 38 L 74 37.5 L 75 36.5 Q 71.9 34.8 73.5 33 L 71.5 32 L 70 32.5 L 70.5 31 L 58 31.5 Q 60.3 32.8 57.5 34 L 55.5 33 L 54.5 38 L 53 38.5 L 53.5 40 L 52 40.5 L 53 41.5 Q 49.9 43.3 51.5 45 L 50 45.5 L 51 46.5 Q 47.9 48.3 49.5 50 L 48 50.5 L 48.5 52 L 47 52.5 L 48 53.5 Q 44.9 55.3 46.5 57 L 45 57.5 L 46 58.5 Q 42.9 60.3 44.5 62 L 43 62.5 L 44 63.5 Q 40.9 65.2 42.5 67 L 41 67.5 L 41.5 69 L 40 69.5 Q 42.3 70.7 39.5 72 L 38.5 33 Q 37.3 35.3 36 32.5 L 36.5 31 L 26 31.5 L 26 33.5 L 26 79.5 L 27 80.5 L 26.5 82 L 37 81.5 Q 34.8 80.3 37.5 79 L 40 79.5 Q 37.8 80.8 40.5 82 L 51 81.5 Q 48.8 80.3 51.5 79 L 53.5 80 L 53.5 78 L 55 77.5 L 54 76.5 L 56 74.5 L 55 73.5 Q 58.1 71.8 56.5 70 L 70.5 70 L 73 72.5 L 72 73.5 Q 75.1 75.3 73.5 77 L 75 77 L 75 80 Q 78.1 79.3 77.5 82 L 88.5 82 L 89.5 79 L 91.5 83 L 93 82.5 L 92 84.5 L 92.5 86 L 91 85.5 L 90 89.5 Q 92.3 90.8 89.5 92 L 88.5 89 L 22 89.5 Q 24.3 90.8 21.5 92 L 21 89.5 L 21 18 Z M 25 33 L 24 80 L 25 80 L 25 33 Z " /><path fill="rgb(32,201,151)" stroke="rgb(32,201,151)" stroke-width="1" opacity="1" d="M 64.5 51 L 65.5 56 L 67 56.5 L 63.5 57 L 62 55.5 L 64.5 51 Z " /><path fill="rgb(32,201,151)" stroke="rgb(32,201,151)" stroke-width="1" opacity="1" d="M 92.5 77 L 93 80.5 L 92 80.5 L 92.5 77 Z " /><path fill="rgb(32,201,151)" stroke="rgb(32,201,151)" stroke-width="1" opacity="1" d="M 91.5 92 L 92 94.5 L 91 94.5 L 91.5 92 Z " /><path fill="rgb(32,201,151)" stroke="rgb(32,201,151)" stroke-width="1" opacity="1" d="M 46 96 L 63.5 96 L 64 98 L 46.5 98 L 46 96 Z " /><path fill="rgb(32,201,151)" stroke="rgb(32,201,151)" stroke-width="1" opacity="1" d="M 27.5 97 L 26.5 99 L 27.5 97 Z " /><path fill="rgb(32,201,151)" stroke="rgb(32,201,151)" stroke-width="1" opacity="1" d="M 92.5 98 L 93 126.5 L 92 126.5 L 92.5 98 Z " /><path fill="rgb(32,201,151)" stroke="rgb(32,201,151)" stroke-width="1" opacity="1" d="M 28 103 L 30 103.5 L 28 104.5 L 28 103 Z " /><path fill="rgb(32,201,151)" stroke="rgb(32,201,151)" stroke-width="1" opacity="1" d="M 32.5 103 L 39 103.5 L 36.5 105 L 34.5 105 L 32.5 103 Z " /><path fill="rgb(32,201,151)" stroke="rgb(32,201,151)" stroke-width="1" opacity="1" d="M 40 103 Q 44.1 101.7 43 105 Q 38.9 106.3 40 103 Z " /><path fill="rgb(32,201,151)" stroke="rgb(32,201,151)" stroke-width="1" opacity="1" d="M 44 103 L 82.5 103 L 83 105 L 46.5 105 L 45.5 104 L 44 104.5 L 44 103 Z " /><path fill="rgb(32,201,151)" stroke="rgb(32,201,151)" stroke-width="1" opacity="1" d="M 48.5 106 L 50.5 106 L 82.5 106 Q 83.6 106.1 83 111.5 L 81.5 115 L 80.5 112 L 54.5 112 L 53 113.5 L 55 117.5 L 53 116.5 Q 54.1 113.2 51.5 114 L 50 114.5 L 50 112.5 L 49.5 111 L 48 111.5 L 50 108.5 L 47 107.5 L 48.5 106 Z " /><path fill="rgb(32,201,151)" stroke="rgb(32,201,151)" stroke-width="1" opacity="1" d="M 33.5 107 L 34.5 109 L 33.5 107 Z " /><path fill="rgb(32,201,151)" stroke="rgb(32,201,151)" stroke-width="1" opacity="1" d="M 41.5 111 L 42.5 113 L 41.5 111 Z " /><path fill="rgb(32,201,151)" stroke="rgb(32,201,151)" stroke-width="1" opacity="1" d="M 29.5 112 L 33 112.5 L 28.5 114 L 29.5 112 Z " /><path fill="rgb(32,201,151)" stroke="rgb(32,201,151)" stroke-width="1" opacity="1" d="M 81.5 121 Q 84.5 122.5 81.5 124 L 81.5 121 Z " /><path fill="rgb(32,201,151)" stroke="rgb(32,201,151)" stroke-width="1" opacity="1" d="M 28.5 122 L 29.5 124 L 28.5 122 Z " /><path fill="rgb(32,201,151)" stroke="rgb(32,201,151)" stroke-width="1" opacity="1" d="M 53.5 124 L 54 126.5 Q 51.8 127.7 54.5 129 L 62 129.5 L 61 131.5 L 62.5 134 L 60.5 134 L 54.5 132 L 52 133.5 Q 54.3 132.3 51.5 131 L 45 129.5 Q 49.6 130.1 51 127.5 L 50.5 126 L 53 127 L 53.5 124 Z " /><path fill="rgb(32,201,151)" stroke="rgb(32,201,151)" stroke-width="1" opacity="1" d="M 29.5 126 L 30.5 129 Q 35.3 127.8 36.5 130 Q 37.8 127.7 39 130.5 L 36 131.5 L 36 134 L 28 134 L 29 128.5 Q 26.8 127.3 29.5 126 Z " /><path fill="rgb(32,201,151)" stroke="rgb(32,201,151)" stroke-width="1" opacity="1" d="M 81.5 126 L 82 128 L 80 127.5 L 81.5 126 Z " /><path fill="rgb(32,201,151)" stroke="rgb(32,201,151)" stroke-width="1" opacity="1" d="M 92.5 128 L 91.5 130 L 92.5 128 Z " /><path fill="rgb(32,201,151)" stroke="rgb(32,201,151)" stroke-width="1" opacity="1" d="M 91.5 133 L 92 150 L 89.5 149 L 87.5 150 L 87.5 149 L 90 147.5 L 88.5 144 L 88 145.5 L 88.5 147 L 87 144.5 L 88 143.5 L 86.5 141 L 89 140.5 Q 86.8 139.3 89.5 138 L 91 138.5 L 91.5 133 Z " /><path fill="rgb(32,201,151)" stroke="rgb(32,201,151)" stroke-width="1" opacity="1" d="M 21.5 138 L 22.5 141 L 39 141.5 L 38 142.5 L 40 144.5 L 39 145.5 Q 42.1 147.3 40.5 149 L 42 149.5 L 21 150 L 21 140.5 L 22 139.5 L 21.5 138 Z " /><path fill="rgb(32,201,151)" stroke="rgb(32,201,151)" stroke-width="1" opacity="1" d="M 75.5 140 L 76.5 142 L 75.5 140 Z " /><path fill="rgb(32,201,151)" stroke="rgb(32,201,151)" stroke-width="1" opacity="1" d="M 83.5 141 L 82.5 143 L 83.5 141 Z " /><path fill="rgb(0,189,249)" stroke="rgb(0,189,249)" stroke-width="1" opacity="1" d="M 139.5 77 L 140 80.5 L 139 80.5 L 139.5 77 Z " /><path fill="rgb(0,189,249)" stroke="rgb(0,189,249)" stroke-width="1" opacity="1" d="M 139.5 87 L 140 92.5 L 139 92.5 L 139.5 87 Z " /><path fill="rgb(0,189,249)" stroke="rgb(0,189,249)" stroke-width="1" opacity="1" d="M 137.5 88 L 138 92.5 L 137 92.5 L 137.5 88 Z " /><path fill="rgb(0,189,249)" stroke="rgb(0,189,249)" stroke-width="1" opacity="1" d="M 137 94 Q 141 92.6 139 99.5 L 136.5 103 L 136 98.5 L 137 98.5 L 137.5 100 L 138 97.5 L 137 94 Z " /><path fill="rgb(0,189,249)" stroke="rgb(0,189,249)" stroke-width="1" opacity="1" d="M 101.5 129 L 105 129.5 L 101.5 130 L 101.5 129 Z " /><path fill="rgb(0,189,249)" stroke="rgb(0,189,249)" stroke-width="1" opacity="1" d="M 43 136 L 76.5 145 L 78 146.5 L 60.5 150 L 59 151.5 L 55.5 170 L 43 136 Z " /><path fill="rgb(247,83,31)" stroke="rgb(247,83,31)" stroke-width="1" opacity="1" d="M 124.5 16 L 127 16.5 L 122 20.5 L 124.5 16 Z " /><path fill="rgb(247,83,31)" stroke="rgb(247,83,31)" stroke-width="1" opacity="1" d="M 135.5 21 L 134.5 23 L 135.5 21 Z " /><path fill="rgb(247,83,31)" stroke="rgb(247,83,31)" stroke-width="1" opacity="1" d="M 113.5 23 L 112.5 25 L 111 24.5 L 113.5 23 Z " /><path fill="rgb(247,83,31)" stroke="rgb(247,83,31)" stroke-width="1" opacity="1" d="M 116.5 24 L 118 24.5 L 114.5 27 L 116.5 24 Z " /><path fill="rgb(247,83,31)" stroke="rgb(247,83,31)" stroke-width="1" opacity="1" d="M 95.5 28 L 95.5 31 Q 92.5 29.5 95.5 28 Z " /><path fill="rgb(247,83,31)" stroke="rgb(247,83,31)" stroke-width="1" opacity="1" d="M 100.5 28 L 99.5 30 L 100.5 28 Z " /><path fill="rgb(247,83,31)" stroke="rgb(247,83,31)" stroke-width="1" opacity="1" d="M 111.5 30 L 114 30.5 L 111.5 31 L 111.5 30 Z " /><path fill="rgb(247,83,31)" stroke="rgb(247,83,31)" stroke-width="1" opacity="1" d="M 118.5 31 L 120.5 34 L 118.5 31 Z " /><path fill="rgb(247,83,31)" stroke="rgb(247,83,31)" stroke-width="1" opacity="1" d="M 97.5 32 L 99.5 32 L 101 32.5 L 98.5 34 L 97.5 32 Z " /><path fill="rgb(247,83,31)" stroke="rgb(247,83,31)" stroke-width="1" opacity="1" d="M 100.5 34 L 103 34.5 L 100.5 35 L 100.5 34 Z " /><path fill="rgb(247,83,31)" stroke="rgb(247,83,31)" stroke-width="1" opacity="1" d="M 107.5 34 L 109 36.5 L 107 35.5 L 107.5 34 Z " /><path fill="rgb(247,83,31)" stroke="rgb(247,83,31)" stroke-width="1" opacity="1" d="M 123.5 34 L 124.5 36 L 123.5 34 Z " /><path fill="rgb(247,83,31)" stroke="rgb(247,83,31)" stroke-width="1" opacity="1" d="M 132.5 36 L 134.5 36 L 142 43.5 L 138.5 41 L 137.5 42 L 132.5 36 Z " /><path fill="rgb(247,83,31)" stroke="rgb(247,83,31)" stroke-width="1" opacity="1" d="M 113.5 38 L 112.5 40 L 113.5 38 Z " /><path fill="rgb(247,83,31)" stroke="rgb(247,83,31)" stroke-width="1" opacity="1" d="M 122.5 38 L 121.5 40 L 122.5 38 Z " /><path fill="rgb(247,83,31)" stroke="rgb(247,83,31)" stroke-width="1" opacity="1" d="M 117.5 40 L 116.5 42 L 117.5 40 Z " /><path fill="rgb(247,83,31)" stroke="rgb(247,83,31)" stroke-width="1" opacity="1" d="M 119.5 41 L 118.5 43 L 119.5 41 Z " /><path fill="rgb(247,83,31)" stroke="rgb(247,83,31)" stroke-width="1" opacity="1" d="M 130.5 41 L 129 43.5 L 130 44.5 L 128 46.5 L 129 48.5 L 127 47.5 L 129 44.5 Q 126.3 42.8 130.5 41 Z " /><path fill="rgb(247,83,31)" stroke="rgb(247,83,31)" stroke-width="1" opacity="1" d="M 155.5 41 L 154.5 43 L 155.5 41 Z " /><path fill="rgb(247,83,31)" stroke="rgb(247,83,31)" stroke-width="1" opacity="1" d="M 134.5 43 L 136 44.5 L 132.5 48 L 131 46.5 L 134.5 43 Z " /><path fill="rgb(247,83,31)" stroke="rgb(247,83,31)" stroke-width="1" opacity="1" d="M 121.5 44 L 122.5 46 L 121.5 44 Z " /><path fill="rgb(247,83,31)" stroke="rgb(247,83,31)" stroke-width="1" opacity="1" d="M 157.5 44 L 156.5 46 L 157.5 44 Z " /><path fill="rgb(247,83,31)" stroke="rgb(247,83,31)" stroke-width="1" opacity="1" d="M 159.5 52 L 162 52.5 L 159 54.5 L 159.5 52 Z " /><path fill="rgb(247,83,31)" stroke="rgb(247,83,31)" stroke-width="1" opacity="1" d="M 148.5 53 L 147.5 55 L 148.5 53 Z " /><path fill="rgb(247,83,31)" stroke="rgb(247,83,31)" stroke-width="1" opacity="1" d="M 157.5 54 L 156.5 56 L 157.5 54 Z " /><path fill="rgb(247,83,31)" stroke="rgb(247,83,31)" stroke-width="1" opacity="1" d="M 132.5 55 L 135 55.5 Q 135.8 57.8 133.5 57 L 132.5 55 Z " /><path fill="rgb(247,83,31)" stroke="rgb(247,83,31)" stroke-width="1" opacity="1" d="M 149.5 55 L 148.5 57 L 149.5 55 Z " /><path fill="rgb(247,83,31)" stroke="rgb(247,83,31)" stroke-width="1" opacity="1" d="M 138.5 61 L 139.5 63 L 138.5 61 Z " /><path fill="rgb(247,83,31)" stroke="rgb(247,83,31)" stroke-width="1" opacity="1" d="M 153.5 62 L 153 63.5 L 152.5 65 L 152 63.5 L 153.5 62 Z " /><path fill="rgb(247,83,31)" stroke="rgb(247,83,31)" stroke-width="1" opacity="1" d="M 140.5 66 L 142 69.5 L 141 69.5 L 140.5 66 Z " /><path fill="rgb(247,83,31)" stroke="rgb(247,83,31)" stroke-width="1" opacity="1" d="M 145.5 66 L 146.5 68 L 144 67.5 L 145.5 66 Z " /><path fill="rgb(247,83,31)" stroke="rgb(247,83,31)" stroke-width="1" opacity="1" d="M 141.5 76 L 142 78.5 L 141 78.5 L 141.5 76 Z " /><path fill="rgb(247,83,31)" stroke="rgb(247,83,31)" stroke-width="1" opacity="1" d="M 168.5 77 L 169 80.5 L 168 80.5 L 168.5 77 Z " /><path fill="rgb(247,83,31)" stroke="rgb(247,83,31)" stroke-width="1" opacity="1" d="M 144.5 87 L 146 87.5 L 144 88.5 L 144.5 90 Q 141.5 88.5 144.5 87 Z " /><path fill="rgb(247,83,31)" stroke="rgb(247,83,31)" stroke-width="1" opacity="1" d="M 168.5 87 L 169 90.5 L 168 90.5 L 168.5 87 Z " /><path fill="rgb(247,83,31)" stroke="rgb(247,83,31)" stroke-width="1" opacity="1" d="M 141.5 89 L 142 92.5 L 141 92.5 L 141.5 89 Z " /><path fill="rgb(247,83,31)" stroke="rgb(247,83,31)" stroke-width="1" opacity="1" d="M 140.5 95 L 141 100.5 L 140 102.5 L 142 102.5 Q 140.5 105.5 139 102.5 L 140.5 95 Z " /><path fill="rgb(247,83,31)" stroke="rgb(247,83,31)" stroke-width="1" opacity="1" d="M 147.5 95 L 146.5 97 L 147.5 95 Z " /><path fill="rgb(247,83,31)" stroke="rgb(247,83,31)" stroke-width="1" opacity="1" d="M 154.5 96 L 156 99.5 L 155 99.5 L 154.5 96 Z " /><path fill="rgb(247,83,31)" stroke="rgb(247,83,31)" stroke-width="1" opacity="1" d="M 148.5 102 L 149.5 104 L 148.5 102 Z " /><path fill="rgb(247,83,31)" stroke="rgb(247,83,31)" stroke-width="1" opacity="1" d="M 143.5 104 L 146 104.5 L 143 105.5 L 143.5 107 Q 140.5 105.5 143.5 104 Z " /><path fill="rgb(247,83,31)" stroke="rgb(247,83,31)" stroke-width="1" opacity="1" d="M 152.5 104 L 153.5 106 L 152.5 104 Z " /><path fill="rgb(247,83,31)" stroke="rgb(247,83,31)" stroke-width="1" opacity="1" d="M 150.5 105 L 151 108.5 L 150 108.5 L 150.5 105 Z " /><path fill="rgb(247,83,31)" stroke="rgb(247,83,31)" stroke-width="1" opacity="1" d="M 138.5 107 L 139 110.5 L 138 110.5 L 138.5 107 Z " /><path fill="rgb(247,83,31)" stroke="rgb(247,83,31)" stroke-width="1" opacity="1" d="M 136.5 108 L 137 109.5 Q 133.5 111 136 112.5 L 135.5 114 L 134 111.5 L 134.5 109 L 136 109.5 L 136.5 108 Z " /><path fill="rgb(247,83,31)" stroke="rgb(247,83,31)" stroke-width="1" opacity="1" d="M 145.5 109 Q 148.5 110.5 145.5 112 L 145.5 109 Z " /><path fill="rgb(247,83,31)" stroke="rgb(247,83,31)" stroke-width="1" opacity="1" d="M 132.5 112 Q 136 114 131.5 116 L 132.5 112 Z " /><path fill="rgb(247,83,31)" stroke="rgb(247,83,31)" stroke-width="1" opacity="1" d="M 148.5 112 L 147.5 114 L 148.5 112 Z " /><path fill="rgb(247,83,31)" stroke="rgb(247,83,31)" stroke-width="1" opacity="1" d="M 156.5 112 L 157.5 114 L 156.5 112 Z " /><path fill="rgb(247,83,31)" stroke="rgb(247,83,31)" stroke-width="1" opacity="1" d="M 143.5 113 L 142.5 115 L 143.5 113 Z " /><path fill="rgb(247,83,31)" stroke="rgb(247,83,31)" stroke-width="1" opacity="1" d="M 160.5 114 L 161.5 116 L 159 115.5 L 160.5 114 Z " /><path fill="rgb(247,83,31)" stroke="rgb(247,83,31)" stroke-width="1" opacity="1" d="M 134.5 116 L 137 116.5 L 134.5 117 L 134.5 116 Z " /><path fill="rgb(247,83,31)" stroke="rgb(247,83,31)" stroke-width="1" opacity="1" d="M 138.5 117 L 139.5 119 L 138.5 117 Z " /><path fill="rgb(247,83,31)" stroke="rgb(247,83,31)" stroke-width="1" opacity="1" d="M 141.5 119 L 140.5 121 L 141.5 119 Z " /><path fill="rgb(247,83,31)" stroke="rgb(247,83,31)" stroke-width="1" opacity="1" d="M 127.5 120 L 128.5 122 L 127.5 120 Z " /><path fill="rgb(247,83,31)" stroke="rgb(247,83,31)" stroke-width="1" opacity="1" d="M 132.5 120 Q 135.3 121.3 133 122.5 L 132.5 124 L 131 121.5 L 132.5 120 Z " /><path fill="rgb(247,83,31)" stroke="rgb(247,83,31)" stroke-width="1" opacity="1" d="M 122.5 122 L 125 122.5 L 124.5 124 L 126.5 123 L 125.5 125 L 122.5 122 Z " /><path fill="rgb(247,83,31)" stroke="rgb(247,83,31)" stroke-width="1" opacity="1" d="M 156.5 122 L 157.5 124 L 156.5 122 Z " /><path fill="rgb(247,83,31)" stroke="rgb(247,83,31)" stroke-width="1" opacity="1" d="M 154.5 125 L 155.5 127 L 154.5 125 Z " /><path fill="rgb(247,83,31)" stroke="rgb(247,83,31)" stroke-width="1" opacity="1" d="M 116.5 126 L 117.5 128 L 115.5 128 L 112.5 129 L 112.5 128 L 116.5 126 Z " /><path fill="rgb(247,83,31)" stroke="rgb(247,83,31)" stroke-width="1" opacity="1" d="M 122.5 128 L 125 128.5 L 122 130.5 L 122.5 128 Z " /><path fill="rgb(247,83,31)" stroke="rgb(247,83,31)" stroke-width="1" opacity="1" d="M 116.5 129 L 116 130.5 L 117 132.5 L 115.5 132 L 114 131.5 L 116.5 129 Z " /><path fill="rgb(247,83,31)" stroke="rgb(247,83,31)" stroke-width="1" opacity="1" d="M 130.5 130 Q 133.5 131.5 130.5 133 L 130.5 130 Z " /><path fill="rgb(247,83,31)" stroke="rgb(247,83,31)" stroke-width="1" opacity="1" d="M 135.5 130 L 134.5 132 L 135.5 130 Z " /><path fill="rgb(247,83,31)" stroke="rgb(247,83,31)" stroke-width="1" opacity="1" d="M 132.5 133 L 134 133.5 L 131.5 135 L 132.5 133 Z " /><path fill="rgb(247,83,31)" stroke="rgb(247,83,31)" stroke-width="1" opacity="1" d="M 123.5 135 L 122.5 137 L 123.5 135 Z " /><path fill="rgb(247,83,31)" stroke="rgb(247,83,31)" stroke-width="1" opacity="1" d="M 94.5 137 L 96 140.5 L 94 139.5 L 94.5 137 Z " /><path fill="rgb(247,83,31)" stroke="rgb(247,83,31)" stroke-width="1" opacity="1" d="M 103.5 137 L 106 138.5 L 104 139.5 L 104.5 138 L 103.5 137 Z " /><path fill="rgb(247,83,31)" stroke="rgb(247,83,31)" stroke-width="1" opacity="1" d="M 119.5 137 L 119 138.5 L 117.5 142 L 117 140.5 L 119.5 137 Z " /><path fill="rgb(247,83,31)" stroke="rgb(247,83,31)" stroke-width="1" opacity="1" d="M 97.5 141 L 102 141.5 L 97.5 142 L 97.5 141 Z " /><path fill="rgb(247,83,31)" stroke="rgb(247,83,31)" stroke-width="1" opacity="1" d="M 95.5 142 L 96.5 146 Q 92 144 95.5 142 Z " /><path fill="rgb(247,83,31)" stroke="rgb(247,83,31)" stroke-width="1" opacity="1" d="M 134.5 145 L 135.5 147 L 134.5 145 Z " /><path fill="rgb(247,83,31)" stroke="rgb(247,83,31)" stroke-width="1" opacity="1" d="M 121.5 146 L 126.5 152 L 123 150.5 L 124 149.5 L 121.5 146 Z " /></svg>